<svg width="229" height="79" viewBox="0 0 229 79" fill="none" xmlns="http://www.w3.org/2000/svg">
<line y1="-0.5" x2="5.04259" y2="-0.5" transform="matrix(0.65042 -0.759575 0.772415 0.635118 180.873 48.8302)" stroke="#D9D9D9"/>
<line y1="-0.5" x2="10.1541" y2="-0.5" transform="matrix(-0.870362 -0.492413 0.507625 -0.861578 28.1361 74.5)" stroke="#D9D9D9"/>
<line y1="-0.5" x2="5.04259" y2="-0.5" transform="matrix(-0.65042 -0.759575 0.772415 -0.635118 50.4683 48.8302)" stroke="#D9D9D9"/>
<line y1="-0.5" x2="10.0242" y2="-0.5" transform="matrix(-0.348187 -0.937425 0.941885 -0.335934 81.5894 31.6985)" stroke="#D9D9D9"/>
<line x1="116.082" y1="25" x2="116.082" y2="20" stroke="#D9D9D9"/>
<line y1="-0.5" x2="10.0242" y2="-0.5" transform="matrix(0.348187 -0.937425 0.941885 0.335934 151.279 31.6985)" stroke="#D9D9D9"/>
<line y1="-0.5" x2="10.1541" y2="-0.5" transform="matrix(0.870362 -0.492413 0.507625 0.861578 203.324 75.5)" stroke="#D9D9D9"/>
<path d="M115.625 10.0994C115.09 10.0994 114.634 9.95384 114.258 9.66264C113.881 9.36908 113.594 8.94413 113.395 8.38778C113.196 7.82907 113.097 7.15436 113.097 6.36364C113.097 5.57765 113.196 4.90649 113.395 4.35014C113.596 3.79143 113.885 3.36529 114.261 3.07173C114.64 2.7758 115.095 2.62784 115.625 2.62784C116.155 2.62784 116.609 2.7758 116.985 3.07173C117.364 3.36529 117.653 3.79143 117.852 4.35014C118.053 4.90649 118.153 5.57765 118.153 6.36364C118.153 7.15436 118.054 7.82907 117.855 8.38778C117.656 8.94413 117.369 9.36908 116.992 9.66264C116.616 9.95384 116.16 10.0994 115.625 10.0994ZM115.625 9.31818C116.155 9.31818 116.567 9.0625 116.861 8.55114C117.154 8.03977 117.301 7.31061 117.301 6.36364C117.301 5.7339 117.234 5.19768 117.099 4.75497C116.966 4.31226 116.774 3.97491 116.523 3.7429C116.275 3.51089 115.975 3.39489 115.625 3.39489C115.099 3.39489 114.689 3.65412 114.393 4.17259C114.097 4.68868 113.949 5.41903 113.949 6.36364C113.949 6.99337 114.015 7.52841 114.148 7.96875C114.28 8.40909 114.471 8.74408 114.719 8.97372C114.97 9.20336 115.272 9.31818 115.625 9.31818Z" fill="#D9D9D9"/>
<path d="M67.221 16.1061L67.493 16.8385L64.4961 17.9074L64.2241 17.175L67.221 16.1061ZM69.6767 19.5053L69.4542 18.9061L70.8002 15.6363C70.9584 15.2532 71.0838 14.9244 71.1764 14.6501C71.2681 14.3736 71.3202 14.1263 71.3327 13.9083C71.3465 13.6872 71.3147 13.4724 71.2372 13.2637C71.1482 13.0241 71.0131 12.8372 70.832 12.7033C70.6532 12.5685 70.4468 12.4888 70.2129 12.4642C69.979 12.4395 69.7383 12.4713 69.4908 12.5596C69.2277 12.6534 69.0182 12.7897 68.8624 12.9685C68.7079 13.1442 68.6131 13.3477 68.5778 13.5789C68.5447 13.8094 68.5763 14.0544 68.6728 14.3141L67.8834 14.5956C67.735 14.1962 67.6973 13.8125 67.7703 13.4447C67.8433 13.0768 68.0079 12.7517 68.2641 12.4693C68.5226 12.1861 68.8514 11.9734 69.2505 11.831C69.6519 11.6879 70.0388 11.6453 70.4114 11.7035C70.784 11.7616 71.1116 11.9024 71.3941 12.1258C71.6766 12.3493 71.8829 12.6363 72.0132 12.987C72.1063 13.2378 72.1517 13.4993 72.1493 13.7716C72.1483 14.0409 72.0907 14.3617 71.9765 14.7342C71.8638 15.1037 71.6891 15.5681 71.4524 16.1275L70.5221 18.3141L70.5419 18.3674L73.7261 17.2317L73.9982 17.9641L69.6767 19.5053ZM77.6485 16.7677C77.1445 16.9474 76.6646 16.964 76.2087 16.8175C75.7519 16.6688 75.333 16.367 74.952 15.9123C74.5701 15.4554 74.2416 14.8563 73.9662 14.115C73.6926 13.3782 73.5525 12.7157 73.5461 12.1273C73.5411 11.536 73.6648 11.0395 73.9171 10.6378C74.1709 10.2332 74.5475 9.94178 75.047 9.76363C75.5465 9.58548 76.025 9.57189 76.4826 9.72284C76.9416 9.87079 77.362 10.1732 77.7438 10.6302C78.1271 11.0841 78.4555 11.6795 78.7292 12.4163C79.0045 13.1575 79.1458 13.8234 79.153 14.414C79.1594 15.0023 79.0365 15.4973 78.7841 15.8989C78.531 16.2984 78.1524 16.5879 77.6485 16.7677ZM77.3765 16.0353C77.8759 15.8572 78.1749 15.4791 78.2734 14.9011C78.3718 14.3231 78.2562 13.5903 77.9264 12.7026C77.7072 12.1123 77.4569 11.6323 77.1757 11.2626C76.8967 10.8921 76.5986 10.6403 76.2814 10.5071C75.9665 10.3731 75.6441 10.365 75.314 10.4827C74.819 10.6592 74.5224 11.0402 74.4242 11.6257C74.3252 12.2089 74.4401 12.9432 74.769 13.8287C74.9883 14.4191 75.237 14.8983 75.5152 15.2666C75.7934 15.6348 76.0895 15.8849 76.4036 16.0166C76.7199 16.1476 77.0442 16.1538 77.3765 16.0353Z" fill="#D9D9D9"/>
<path d="M214.911 63.7022C214.763 63.4429 214.662 63.1579 214.605 62.8473C214.548 62.5367 214.57 62.2117 214.669 61.8725C214.771 61.5322 214.977 61.1888 215.286 60.8423C215.598 60.4946 216.046 60.1552 216.632 59.8242C217.192 59.5071 217.719 59.2781 218.213 59.1374C218.709 58.9954 219.164 58.9394 219.577 58.9694C219.993 58.9982 220.36 59.1086 220.679 59.3007C220.999 59.4947 221.264 59.7682 221.471 60.121C221.678 60.4719 221.791 60.8242 221.81 61.1779C221.832 61.5326 221.768 61.8677 221.619 62.1833C221.47 62.4989 221.246 62.7748 220.949 63.0112L220.509 62.2646C220.753 62.0344 220.909 61.7663 220.979 61.4603C221.049 61.1544 220.986 60.8362 220.791 60.5057C220.505 60.0203 220.067 59.7585 219.476 59.7204C218.886 59.6843 218.205 59.8832 217.433 60.3171L217.462 60.3661C217.704 60.3812 217.934 60.4324 218.15 60.5195C218.369 60.6075 218.569 60.7281 218.75 60.8813C218.931 61.0346 219.085 61.2183 219.211 61.4325C219.423 61.7915 219.525 62.1712 219.52 62.5716C219.516 62.9708 219.408 63.3499 219.196 63.7089C218.987 64.0668 218.678 64.3611 218.27 64.5919C217.879 64.8134 217.469 64.9296 217.041 64.9404C216.616 64.95 216.215 64.852 215.838 64.6463C215.464 64.4415 215.155 64.1268 214.911 63.7022ZM215.591 63.3175C215.742 63.5745 215.943 63.7683 216.193 63.8988C216.444 64.0314 216.714 64.0951 217.002 64.0898C217.291 64.0866 217.57 64.0092 217.838 63.8576C218.099 63.7096 218.303 63.5168 218.449 63.2793C218.598 63.0427 218.677 62.7873 218.686 62.5131C218.696 62.2409 218.625 61.9763 218.473 61.7193C218.359 61.5255 218.214 61.3672 218.037 61.2442C217.862 61.1201 217.67 61.0327 217.462 60.982C217.255 60.9333 217.044 60.9223 216.828 60.9488C216.615 60.9742 216.414 61.0405 216.224 61.1477C215.973 61.2899 215.772 61.481 215.623 61.7208C215.474 61.9627 215.393 62.2235 215.379 62.5032C215.366 62.785 215.437 63.0565 215.591 63.3175ZM218.057 69.042C217.785 68.581 217.681 68.1167 217.743 67.649C217.807 67.1801 218.031 66.723 218.415 66.2777C218.8 65.8313 219.337 65.4134 220.025 65.024C220.709 64.637 221.344 64.3921 221.929 64.2895C222.517 64.1878 223.035 64.2268 223.481 64.4066C223.931 64.5872 224.291 64.906 224.56 65.3629C224.829 65.8198 224.93 66.2832 224.864 66.7533C224.801 67.2242 224.576 67.6828 224.191 68.1293C223.809 68.5766 223.276 68.9938 222.592 69.3808C221.904 69.7702 221.266 70.0168 220.679 70.1205C220.093 70.2232 219.578 70.1846 219.131 70.0048C218.687 69.8239 218.328 69.5029 218.057 69.042ZM218.737 68.6573C219.006 69.1142 219.438 69.3432 220.032 69.3443C220.626 69.3454 221.335 69.1128 222.159 68.6465C222.707 68.3364 223.14 68.0143 223.457 67.68C223.775 67.3478 223.971 67.0165 224.045 66.686C224.121 66.3576 224.07 66.0424 223.892 65.7406C223.625 65.2877 223.191 65.0615 222.59 65.0618C221.99 65.061 221.28 65.2932 220.457 65.7583C219.909 66.0684 219.477 66.389 219.161 66.72C218.845 67.0511 218.651 67.3802 218.577 67.7075C218.504 68.0368 218.558 68.3534 218.737 68.6573Z" fill="#D9D9D9"/>
<path d="M7.42028 72.1763L8.10025 72.561L6.48507 75.3024L5.8051 74.9177L7.42028 72.1763ZM12.9789 70.8695C12.8234 71.1242 12.6225 71.3532 12.3763 71.5566C12.1301 71.7599 11.8322 71.9042 11.4826 71.9892C11.131 72.0731 10.7246 72.0703 10.2636 71.9808C9.8005 71.8902 9.27636 71.6793 8.69118 71.3482C8.13072 71.0312 7.66478 70.6982 7.29336 70.3494C6.91988 69.9994 6.64307 69.6415 6.46293 69.2758C6.28072 68.9089 6.19467 68.542 6.20478 68.1751C6.21608 67.8062 6.32569 67.4453 6.53359 67.0925C6.7403 66.7416 6.99525 66.4698 7.29847 66.2769C7.60082 66.0808 7.92876 65.9672 8.28229 65.936C8.63583 65.9049 8.99143 65.9565 9.34909 66.0908L8.90925 66.8374C8.58404 66.7458 8.26879 66.747 7.96351 66.8408C7.65823 66.9346 7.40825 67.1467 7.21356 67.4772C6.92754 67.9626 6.91547 68.4657 7.17736 68.9865C7.44045 69.5052 7.9567 69.9836 8.72614 70.4216L8.75498 70.3726C8.64713 70.1593 8.57766 69.9392 8.54657 69.7122C8.51461 69.4819 8.52112 69.2517 8.56609 69.0215C8.61106 68.7913 8.69664 68.5691 8.82282 68.355C9.03433 67.996 9.31848 67.7189 9.67526 67.5237C10.03 67.3273 10.4189 67.2291 10.842 67.2291C11.263 67.228 11.6775 67.3429 12.0855 67.5737C12.477 67.7952 12.7844 68.0847 13.0078 68.4423C13.2292 68.7987 13.3431 69.1881 13.3497 69.6107C13.3554 70.03 13.2318 70.4496 12.9789 70.8695ZM12.2989 70.4848C12.4503 70.2278 12.5212 69.9606 12.5116 69.6832C12.5032 69.4037 12.4246 69.143 12.2759 68.9012C12.1284 68.6572 11.9207 68.4595 11.6528 68.308C11.3911 68.1599 11.1189 68.0834 10.8361 68.0784C10.5524 68.0703 10.2873 68.131 10.0405 68.2606C9.795 68.3883 9.59653 68.5806 9.44511 68.8376C9.33094 69.0314 9.26373 69.234 9.24349 69.4456C9.22118 69.656 9.23974 69.8623 9.29917 70.0645C9.35979 70.2647 9.45562 70.4495 9.58664 70.6188C9.7156 70.7869 9.87486 70.9246 10.0644 71.0319C10.3158 71.1741 10.585 71.2489 10.8719 71.2562C11.16 71.2614 11.4311 71.2 11.6852 71.0718C11.9405 70.9415 12.1451 70.7459 12.2989 70.4848ZM16.125 65.5297C15.8534 65.9907 15.4953 66.3117 15.0508 66.4926C14.6042 66.6724 14.0883 66.7109 13.5031 66.6083C12.9159 66.5045 12.2782 66.258 11.59 65.8686C10.9059 65.4816 10.3722 65.0654 9.98894 64.6201C9.60481 64.1716 9.38053 63.713 9.31611 63.2441C9.25083 62.772 9.35278 62.3075 9.62198 61.8506C9.89117 61.3937 10.2501 61.076 10.6987 60.8974C11.1465 60.7156 11.664 60.6766 12.2513 60.7804C12.8376 60.8809 13.4729 61.1247 14.157 61.5118C14.8452 61.9011 15.3819 62.319 15.7673 62.7655C16.1505 63.2108 16.3744 63.6679 16.4388 64.1367C16.5012 64.6044 16.3966 65.0688 16.125 65.5297ZM15.445 65.1451C15.7142 64.6882 15.7008 64.2073 15.4047 63.7026C15.1087 63.1979 14.5485 62.7124 13.7243 62.2461C13.1762 61.936 12.6753 61.7301 12.2214 61.6283C11.7688 61.5246 11.3779 61.5237 11.0485 61.6256C10.7204 61.7256 10.4674 61.9265 10.2896 62.2283C10.0228 62.6812 10.0399 63.1627 10.3409 63.673C10.6399 64.1821 11.2005 64.6692 12.0226 65.1343C12.5707 65.4444 13.07 65.6508 13.5206 65.7534C13.9712 65.856 14.3595 65.8567 14.6855 65.7556C15.0128 65.6525 15.2659 65.449 15.445 65.1451Z" fill="#D9D9D9"/>
<path d="M186.722 31.8327L187.193 31.2825L192.951 29.4713L193.357 29.8051L192.627 30.6575L192.352 30.4319L188.002 31.8006L187.965 31.8438L191.289 34.5773L190.781 35.1707L186.722 31.8327ZM188.396 35.1398L189.509 33.8397L189.729 33.5835L193.126 29.6157L193.773 30.1479L189.043 35.6721L188.396 35.1398ZM192.607 38.731C192.193 38.3911 191.936 37.9911 191.835 37.5308C191.735 37.0688 191.789 36.5633 191.997 36.0144C192.207 35.4638 192.569 34.8881 193.084 34.2875C193.595 33.6905 194.108 33.2438 194.624 32.9475C195.142 32.651 195.643 32.5107 196.124 32.5268C196.609 32.5426 197.057 32.7189 197.466 33.0557C197.876 33.3925 198.13 33.7928 198.228 34.2567C198.33 34.7203 198.276 35.2274 198.066 35.7781C197.86 36.3285 197.501 36.9022 196.99 37.4992C196.475 38.0998 195.96 38.5491 195.443 38.8472C194.927 39.1435 194.429 39.2836 193.947 39.2675C193.467 39.2496 193.02 39.0708 192.607 38.731ZM193.115 38.1375C193.524 38.4743 194.009 38.5418 194.568 38.3398C195.128 38.1378 195.715 37.6772 196.331 36.9579C196.741 36.4795 197.037 36.0294 197.221 35.6074C197.407 35.1869 197.478 34.8089 197.435 34.4733C197.394 34.1392 197.238 33.8609 196.967 33.6383C196.562 33.3045 196.076 33.2406 195.51 33.4464C194.946 33.6505 194.356 34.1113 193.742 34.8288C193.332 35.3071 193.035 35.7556 192.851 36.1743C192.667 36.593 192.597 36.9685 192.639 37.3008C192.684 37.6346 192.842 37.9135 193.115 38.1375Z" fill="#D9D9D9"/>
<path d="M31.6289 39.6352L32.1371 40.2286L29.6794 42.2495L29.1713 41.656L31.6289 39.6352ZM34.2745 40.7419L33.8033 40.1916L32.9829 34.3207L33.3888 33.9869L34.1187 34.8393L33.8444 35.0648L34.4645 39.5008L34.5014 39.544L37.8259 36.8105L38.334 37.4039L34.2745 40.7419ZM37.8888 39.7005L36.7755 38.4004L36.556 38.1442L33.1584 34.1764L33.8058 33.6441L38.5361 39.1683L37.8888 39.7005ZM42.229 36.2605C41.8157 36.6003 41.369 36.7791 40.8889 36.797C40.4072 36.8131 39.9086 36.673 39.3931 36.3767C38.8761 36.0787 38.3605 35.6293 37.8462 35.0287C37.335 34.4317 36.9752 33.8587 36.767 33.3098C36.559 32.7577 36.5049 32.2505 36.6048 31.7885C36.7049 31.3231 36.9597 30.9221 37.3693 30.5852C37.7789 30.2484 38.2254 30.0729 38.7086 30.0586C39.1921 30.041 39.6924 30.1813 40.2094 30.4793C40.7267 30.7741 41.2409 31.22 41.7521 31.817C42.2664 32.4176 42.6285 32.9933 42.8383 33.544C43.0465 34.0929 43.1008 34.5983 43.0009 35.0604C42.8996 35.5206 42.6423 35.9207 42.229 36.2605ZM41.7209 35.6671C42.1305 35.3303 42.2824 34.8744 42.1765 34.2996C42.0707 33.7247 41.7098 33.0776 41.0938 32.3583C40.6842 31.88 40.2834 31.5155 39.8912 31.265C39.5008 31.0129 39.1333 30.8784 38.7886 30.8616C38.4456 30.8433 38.1389 30.9453 37.8682 31.1679C37.4623 31.5017 37.3136 31.9595 37.4223 32.5412C37.5294 33.1212 37.8901 33.7699 38.5045 34.4874C38.9141 34.9657 39.3133 35.33 39.7021 35.5803C40.0909 35.8306 40.456 35.964 40.7974 35.9805C41.1406 35.9956 41.4484 35.8911 41.7209 35.6671Z" fill="#D9D9D9"/>
<path d="M151.674 15.6272L151.896 15.028L155.072 13.371C155.445 13.1771 155.757 13.0043 156.007 12.8525C156.259 12.6984 156.461 12.5418 156.614 12.3826C156.769 12.222 156.886 12.0373 156.963 11.8287C157.052 11.589 157.072 11.3609 157.021 11.1442C156.972 10.9283 156.866 10.7372 156.703 10.571C156.54 10.4048 156.335 10.2776 156.087 10.1893C155.824 10.0955 155.574 10.0679 155.338 10.1067C155.104 10.144 154.898 10.2401 154.719 10.395C154.543 10.5507 154.406 10.7584 154.31 11.0181L153.521 10.7365C153.669 10.3371 153.892 10.0194 154.189 9.7836C154.486 9.54779 154.825 9.40241 155.207 9.34747C155.591 9.29333 155.982 9.33744 156.381 9.4798C156.783 9.62295 157.107 9.83413 157.354 10.1133C157.602 10.3926 157.76 10.7067 157.83 11.0558C157.9 11.405 157.87 11.7548 157.739 12.1055C157.646 12.3563 157.509 12.5852 157.329 12.7923C157.152 12.9979 156.897 13.2074 156.565 13.4209C156.236 13.6329 155.798 13.8786 155.25 14.1581L153.103 15.2471L153.083 15.3004L156.267 16.4361L155.995 17.1684L151.674 15.6272ZM159.576 18.5512C159.072 18.3715 158.694 18.0819 158.441 17.6825C158.188 17.2808 158.065 16.7859 158.072 16.1975C158.079 15.607 158.22 14.9411 158.496 14.1998C158.769 13.463 159.097 12.8673 159.478 12.4125C159.862 11.9564 160.282 11.6539 160.739 11.5052C161.199 11.355 161.678 11.369 162.178 11.5472C162.677 11.7253 163.053 12.0163 163.304 12.4202C163.559 12.8226 163.682 13.3191 163.675 13.9097C163.671 14.4988 163.532 15.1618 163.259 15.8986C162.983 16.6398 162.655 17.2389 162.273 17.6959C161.892 18.1506 161.473 18.4523 161.016 18.6011C160.56 18.7476 160.08 18.731 159.576 18.5512ZM159.848 17.8189C160.348 17.997 160.825 17.8957 161.279 17.515C161.734 17.1342 162.126 16.5 162.456 15.6123C162.675 15.0219 162.798 14.4966 162.825 14.0363C162.854 13.5767 162.791 13.1961 162.636 12.8943C162.482 12.5933 162.241 12.3839 161.911 12.2662C161.416 12.0897 160.939 12.1947 160.479 12.5813C160.021 12.9657 159.627 13.6006 159.298 14.4861C159.079 15.0765 158.955 15.6003 158.927 16.0576C158.898 16.5149 158.961 16.893 159.115 17.1918C159.272 17.4913 159.516 17.7004 159.848 17.8189Z" fill="#D9D9D9"/>
<g style="mix-blend-mode:multiply" filter="url(#filter0_i_3_47)">
<path d="M203.5 75.5C196 64 192 58 178.846 46.5507C161.194 32.8773 139.426 25.304 116.927 25.0089C94.4281 24.7139 72.4606 31.7137 54.4418 44.9194C45.4627 51.5 36 62 27.5 75.5" stroke="url(#paint0_angular_3_47)"/>
</g>
<defs>
<filter id="filter0_i_3_47" x="27.0769" y="24.5" width="176.842" height="55.2731" filterUnits="userSpaceOnUse" color-interpolation-filters="sRGB">
<feFlood flood-opacity="0" result="BackgroundImageFix"/>
<feBlend mode="normal" in="SourceGraphic" in2="BackgroundImageFix" result="shape"/>
<feColorMatrix in="SourceAlpha" type="matrix" values="0 0 0 0 0 0 0 0 0 0 0 0 0 0 0 0 0 0 127 0" result="hardAlpha"/>
<feOffset dy="4"/>
<feGaussianBlur stdDeviation="2"/>
<feComposite in2="hardAlpha" operator="arithmetic" k2="-1" k3="1"/>
<feColorMatrix type="matrix" values="0 0 0 0 0 0 0 0 0 0 0 0 0 0 0 0 0 0 0.25 0"/>
<feBlend mode="normal" in2="shape" result="effect1_innerShadow_3_47"/>
</filter>
<radialGradient id="paint0_angular_3_47" cx="0" cy="0" r="1" gradientUnits="userSpaceOnUse" gradientTransform="translate(115.561 125) rotate(90) scale(100 102.049)">
<stop stop-color="#F2E6E6"/>
<stop offset="1" stop-color="#1A0202" stop-opacity="0"/>
</radialGradient>
</defs>
</svg>
