<svg width="1822" height="71" viewBox="0 0 1822 71" fill="none" xmlns="http://www.w3.org/2000/svg">
<line x1="1110.5" y1="51" x2="1110.5" y2="71" stroke="#FEFEFE" stroke-width="3"/>
<line x1="1160" y1="51" x2="1160" y2="61" stroke="#FEFEFE" stroke-width="2"/>
<line x1="1010.5" y1="51" x2="1010.5" y2="71" stroke="#FEFEFE" stroke-width="3"/>
<line x1="1060" y1="51" x2="1060" y2="61" stroke="#FEFEFE" stroke-width="2"/>
<line x1="910.5" y1="51" x2="910.5" y2="71" stroke="#FEFEFE" stroke-width="3"/>
<line x1="960" y1="51" x2="960" y2="61" stroke="#FEFEFE" stroke-width="2"/>
<line x1="810.5" y1="51" x2="810.5" y2="71" stroke="#FEFEFE" stroke-width="3"/>
<line x1="860" y1="51" x2="860" y2="61" stroke="#FEFEFE" stroke-width="2"/>
<line x1="1510.5" y1="51" x2="1510.5" y2="71" stroke="#FEFEFE" stroke-width="3"/>
<line x1="1560" y1="51" x2="1560" y2="61" stroke="#FEFEFE" stroke-width="2"/>
<line x1="1410.5" y1="51" x2="1410.5" y2="71" stroke="#FEFEFE" stroke-width="3"/>
<line x1="1460" y1="51" x2="1460" y2="61" stroke="#FEFEFE" stroke-width="2"/>
<line x1="1310.5" y1="51" x2="1310.5" y2="71" stroke="#FEFEFE" stroke-width="3"/>
<line x1="1360" y1="51" x2="1360" y2="61" stroke="#FEFEFE" stroke-width="2"/>
<line x1="1710.5" y1="51" x2="1710.5" y2="71" stroke="#FEFEFE" stroke-width="3"/>
<line x1="1808.5" y1="51" x2="1808.5" y2="71" stroke="#FEFEFE" stroke-width="3"/>
<line x1="1760" y1="51" x2="1760" y2="61" stroke="#FEFEFE" stroke-width="2"/>
<line x1="1610.5" y1="51" x2="1610.5" y2="71" stroke="#FEFEFE" stroke-width="3"/>
<line x1="1660" y1="51" x2="1660" y2="61" stroke="#FEFEFE" stroke-width="2"/>
<line x1="1210.5" y1="51" x2="1210.5" y2="71" stroke="#FEFEFE" stroke-width="3"/>
<line x1="1260" y1="51" x2="1260" y2="61" stroke="#FEFEFE" stroke-width="2"/>
<line x1="610.5" y1="51" x2="610.5" y2="71" stroke="#FEFEFE" stroke-width="3"/>
<line x1="660" y1="51" x2="660" y2="61" stroke="#FEFEFE" stroke-width="2"/>
<line x1="510.5" y1="51" x2="510.5" y2="71" stroke="#FEFEFE" stroke-width="3"/>
<line x1="560" y1="51" x2="560" y2="61" stroke="#FEFEFE" stroke-width="2"/>
<line x1="410.5" y1="51" x2="410.5" y2="71" stroke="#FEFEFE" stroke-width="3"/>
<line x1="460" y1="51" x2="460" y2="61" stroke="#FEFEFE" stroke-width="2"/>
<line x1="310.5" y1="51" x2="310.5" y2="71" stroke="#FEFEFE" stroke-width="3"/>
<line x1="360" y1="51" x2="360" y2="61" stroke="#FEFEFE" stroke-width="2"/>
<line x1="210.5" y1="51" x2="210.5" y2="71" stroke="#FEFEFE" stroke-width="3"/>
<line x1="260" y1="51" x2="260" y2="61" stroke="#FEFEFE" stroke-width="2"/>
<line x1="110.5" y1="51" x2="110.5" y2="71" stroke="#FEFEFE" stroke-width="3"/>
<line x1="160" y1="51" x2="160" y2="61" stroke="#FEFEFE" stroke-width="2"/>
<line x1="10.5" y1="51" x2="10.5" y2="71" stroke="#FEFEFE" stroke-width="3"/>
<line x1="60" y1="51" x2="60" y2="61" stroke="#FEFEFE" stroke-width="2"/>
<line x1="710.5" y1="51" x2="710.5" y2="71" stroke="#FEFEFE" stroke-width="3"/>
<line x1="760" y1="51" x2="760" y2="61" stroke="#FEFEFE" stroke-width="2"/>
<path d="M919.943 11.1818V33H917.386L905.497 15.8693H905.284V33H902.642V11.1818H905.199L917.131 28.3551H917.344V11.1818H919.943Z" fill="white"/>
<path d="M453.009 29L448.023 12.6364H450.665L454.202 25.1648H454.372L457.866 12.6364H460.551L464.003 25.1222H464.173L467.71 12.6364H470.352L465.366 29H462.895L459.315 16.429H459.06L455.48 29H453.009Z" fill="white"/>
<path d="M14.5739 16.6364C14.446 15.5568 13.9276 14.7188 13.0185 14.1222C12.1094 13.5256 10.9943 13.2273 9.6733 13.2273C8.70739 13.2273 7.86222 13.3835 7.13778 13.696C6.42045 14.0085 5.85938 14.4382 5.45455 14.9851C5.05682 15.532 4.85795 16.1534 4.85795 16.8494C4.85795 17.4318 4.99645 17.9325 5.27344 18.3516C5.55753 18.7635 5.91974 19.108 6.36009 19.3849C6.80043 19.6548 7.26207 19.8786 7.74503 20.0561C8.22798 20.2266 8.67188 20.3651 9.0767 20.4716L11.2926 21.0682C11.8608 21.2173 12.4929 21.4233 13.1889 21.6861C13.892 21.9489 14.5632 22.3075 15.2024 22.7621C15.8487 23.2095 16.3814 23.7848 16.8004 24.4879C17.2195 25.1911 17.429 26.054 17.429 27.0767C17.429 28.2557 17.12 29.321 16.5021 30.2727C15.8913 31.2244 14.9964 31.9808 13.8175 32.5419C12.6456 33.103 11.2216 33.3835 9.54545 33.3835C7.98295 33.3835 6.62997 33.1314 5.48651 32.6271C4.35014 32.1229 3.45526 31.4197 2.80185 30.5178C2.15554 29.6158 1.78977 28.5682 1.70455 27.375H4.43182C4.50284 28.1989 4.77983 28.8807 5.26278 29.4205C5.75284 29.9531 6.37074 30.3509 7.11648 30.6136C7.86932 30.8693 8.67898 30.9972 9.54545 30.9972C10.554 30.9972 11.4595 30.8338 12.2621 30.5071C13.0646 30.1733 13.7003 29.7116 14.169 29.1222C14.6378 28.5256 14.8722 27.8295 14.8722 27.0341C14.8722 26.3097 14.6697 25.7202 14.2649 25.2656C13.8601 24.8111 13.3274 24.4418 12.6669 24.1577C12.0064 23.8736 11.2926 23.625 10.5256 23.4119L7.84091 22.6449C6.13636 22.1548 4.78693 21.4553 3.79261 20.5462C2.7983 19.6371 2.30114 18.4474 2.30114 16.9773C2.30114 15.7557 2.63139 14.6903 3.2919 13.7812C3.95952 12.8651 4.8544 12.1548 5.97656 11.6506C7.10582 11.1392 8.36648 10.8835 9.75852 10.8835C11.1648 10.8835 12.4148 11.1357 13.5085 11.6399C14.6023 12.1371 15.4688 12.8189 16.108 13.6854C16.7543 14.5518 17.0952 15.5355 17.1307 16.6364H14.5739Z" fill="white"/>
<path d="M1352.64 33V11.1818H1365.81V13.5256H1355.28V20.8977H1365.13V23.2415H1355.28V30.6562H1365.98V33H1352.64Z" fill="white"/>
<path d="M1816.57 16.6364C1816.45 15.5568 1815.93 14.7188 1815.02 14.1222C1814.11 13.5256 1812.99 13.2273 1811.67 13.2273C1810.71 13.2273 1809.86 13.3835 1809.14 13.696C1808.42 14.0085 1807.86 14.4382 1807.45 14.9851C1807.06 15.532 1806.86 16.1534 1806.86 16.8494C1806.86 17.4318 1807 17.9325 1807.27 18.3516C1807.56 18.7635 1807.92 19.108 1808.36 19.3849C1808.8 19.6548 1809.26 19.8786 1809.75 20.0561C1810.23 20.2266 1810.67 20.3651 1811.08 20.4716L1813.29 21.0682C1813.86 21.2173 1814.49 21.4233 1815.19 21.6861C1815.89 21.9489 1816.56 22.3075 1817.2 22.7621C1817.85 23.2095 1818.38 23.7848 1818.8 24.4879C1819.22 25.1911 1819.43 26.054 1819.43 27.0767C1819.43 28.2557 1819.12 29.321 1818.5 30.2727C1817.89 31.2244 1817 31.9808 1815.82 32.5419C1814.65 33.103 1813.22 33.3835 1811.55 33.3835C1809.98 33.3835 1808.63 33.1314 1807.49 32.6271C1806.35 32.1229 1805.46 31.4197 1804.8 30.5178C1804.16 29.6158 1803.79 28.5682 1803.7 27.375H1806.43C1806.5 28.1989 1806.78 28.8807 1807.26 29.4205C1807.75 29.9531 1808.37 30.3509 1809.12 30.6136C1809.87 30.8693 1810.68 30.9972 1811.55 30.9972C1812.55 30.9972 1813.46 30.8338 1814.26 30.5071C1815.06 30.1733 1815.7 29.7116 1816.17 29.1222C1816.64 28.5256 1816.87 27.8295 1816.87 27.0341C1816.87 26.3097 1816.67 25.7202 1816.26 25.2656C1815.86 24.8111 1815.33 24.4418 1814.67 24.1577C1814.01 23.8736 1813.29 23.625 1812.53 23.4119L1809.84 22.6449C1808.14 22.1548 1806.79 21.4553 1805.79 20.5462C1804.8 19.6371 1804.3 18.4474 1804.3 16.9773C1804.3 15.7557 1804.63 14.6903 1805.29 13.7812C1805.96 12.8651 1806.85 12.1548 1807.98 11.6506C1809.11 11.1392 1810.37 10.8835 1811.76 10.8835C1813.16 10.8835 1814.41 11.1357 1815.51 11.6399C1816.6 12.1371 1817.47 12.8189 1818.11 13.6854C1818.75 14.5518 1819.1 15.5355 1819.13 16.6364H1816.57Z" fill="white"/>
<path d="M953.619 14.4545V29H951.858V16.3011H951.773L948.222 18.6591V16.8693L951.858 14.4545H953.619ZM962.547 29.1989C961.477 29.1989 960.565 28.9077 959.812 28.3253C959.06 27.7382 958.484 26.8883 958.087 25.7756C957.689 24.6581 957.49 23.3087 957.49 21.7273C957.49 20.1553 957.689 18.813 958.087 17.7003C958.489 16.5829 959.067 15.7306 959.82 15.1435C960.577 14.5516 961.486 14.2557 962.547 14.2557C963.607 14.2557 964.514 14.5516 965.267 15.1435C966.025 15.7306 966.602 16.5829 967 17.7003C967.402 18.813 967.604 20.1553 967.604 21.7273C967.604 23.3087 967.405 24.6581 967.007 25.7756C966.609 26.8883 966.034 27.7382 965.281 28.3253C964.528 28.9077 963.617 29.1989 962.547 29.1989ZM962.547 27.6364C963.607 27.6364 964.431 27.125 965.018 26.1023C965.606 25.0795 965.899 23.6212 965.899 21.7273C965.899 20.4678 965.764 19.3954 965.494 18.5099C965.229 17.6245 964.846 16.9498 964.344 16.4858C963.847 16.0218 963.248 15.7898 962.547 15.7898C961.496 15.7898 960.674 16.3082 960.082 17.3452C959.491 18.3774 959.195 19.8381 959.195 21.7273C959.195 22.9867 959.327 24.0568 959.592 24.9375C959.857 25.8182 960.239 26.4882 960.736 26.9474C961.238 27.4067 961.841 27.6364 962.547 27.6364Z" fill="white"/>
<path d="M846.42 29.1989C845.483 29.1989 844.647 29.0379 843.913 28.7159C843.184 28.3939 842.604 27.9465 842.173 27.3736C841.747 26.7959 841.515 26.1259 841.477 25.3636H843.267C843.305 25.8324 843.466 26.2372 843.75 26.5781C844.034 26.9143 844.406 27.1747 844.865 27.3594C845.324 27.544 845.833 27.6364 846.392 27.6364C847.017 27.6364 847.571 27.5275 848.054 27.3097C848.537 27.0919 848.916 26.7888 849.19 26.4006C849.465 26.0123 849.602 25.5625 849.602 25.0511C849.602 24.5161 849.47 24.045 849.205 23.6378C848.939 23.2259 848.551 22.9039 848.04 22.6719C847.528 22.4399 846.903 22.3239 846.165 22.3239H845V20.7614H846.165C846.742 20.7614 847.249 20.6572 847.685 20.4489C848.125 20.2405 848.468 19.947 848.714 19.5682C848.965 19.1894 849.091 18.7443 849.091 18.233C849.091 17.7405 848.982 17.312 848.764 16.9474C848.546 16.5829 848.239 16.2988 847.841 16.0952C847.448 15.8916 846.984 15.7898 846.449 15.7898C845.947 15.7898 845.473 15.8821 845.028 16.0668C844.588 16.2467 844.228 16.5095 843.949 16.8551C843.67 17.196 843.518 17.608 843.494 18.0909H841.79C841.818 17.3286 842.048 16.661 842.479 16.0881C842.91 15.5104 843.473 15.0606 844.169 14.7386C844.87 14.4167 845.639 14.2557 846.477 14.2557C847.377 14.2557 848.149 14.438 848.793 14.8026C849.437 15.1624 849.931 15.6383 850.277 16.2301C850.623 16.822 850.795 17.4612 850.795 18.1477C850.795 18.9669 850.58 19.6652 850.149 20.2429C849.723 20.8205 849.143 21.2206 848.409 21.4432V21.5568C849.328 21.7083 850.045 22.099 850.561 22.7287C851.077 23.3537 851.335 24.1278 851.335 25.0511C851.335 25.8419 851.12 26.5521 850.689 27.1818C850.263 27.8068 849.68 28.2992 848.942 28.6591C848.203 29.0189 847.363 29.1989 846.42 29.1989ZM858.786 29.1989C857.952 29.1989 857.202 29.0331 856.534 28.7017C855.866 28.3703 855.331 27.9157 854.929 27.3381C854.527 26.7604 854.306 26.1023 854.268 25.3636H855.973C856.039 26.0218 856.338 26.5663 856.868 26.9972C857.403 27.4233 858.042 27.6364 858.786 27.6364C859.382 27.6364 859.912 27.4967 860.376 27.2173C860.845 26.938 861.212 26.5545 861.477 26.0668C861.747 25.5743 861.882 25.018 861.882 24.3977C861.882 23.7633 861.742 23.1974 861.463 22.7003C861.188 22.1984 860.81 21.803 860.327 21.5142C859.844 21.2254 859.292 21.0786 858.672 21.0739C858.227 21.0691 857.77 21.1378 857.301 21.2798C856.832 21.4171 856.446 21.5947 856.143 21.8125L854.496 21.6136L855.376 14.4545H862.933V16.017H856.854L856.342 20.3068H856.428C856.726 20.0701 857.1 19.8736 857.55 19.7173C858 19.5611 858.468 19.483 858.956 19.483C859.846 19.483 860.639 19.696 861.335 20.1222C862.036 20.5436 862.585 21.1212 862.983 21.8551C863.385 22.589 863.587 23.4271 863.587 24.3693C863.587 25.2973 863.378 26.1259 862.962 26.8551C862.55 27.5795 861.982 28.1525 861.257 28.5739C860.533 28.9905 859.709 29.1989 858.786 29.1989ZM871.152 29.1989C870.082 29.1989 869.171 28.9077 868.418 28.3253C867.665 27.7382 867.09 26.8883 866.692 25.7756C866.294 24.6581 866.096 23.3087 866.096 21.7273C866.096 20.1553 866.294 18.813 866.692 17.7003C867.095 16.5829 867.672 15.7306 868.425 15.1435C869.183 14.5516 870.092 14.2557 871.152 14.2557C872.213 14.2557 873.12 14.5516 873.873 15.1435C874.63 15.7306 875.208 16.5829 875.605 17.7003C876.008 18.813 876.209 20.1553 876.209 21.7273C876.209 23.3087 876.01 24.6581 875.613 25.7756C875.215 26.8883 874.64 27.7382 873.887 28.3253C873.134 28.9077 872.222 29.1989 871.152 29.1989ZM871.152 27.6364C872.213 27.6364 873.037 27.125 873.624 26.1023C874.211 25.0795 874.505 23.6212 874.505 21.7273C874.505 20.4678 874.37 19.3954 874.1 18.5099C873.835 17.6245 873.451 16.9498 872.949 16.4858C872.452 16.0218 871.853 15.7898 871.152 15.7898C870.101 15.7898 869.28 16.3082 868.688 17.3452C868.096 18.3774 867.8 19.8381 867.8 21.7273C867.8 22.9867 867.933 24.0568 868.198 24.9375C868.463 25.8182 868.844 26.4882 869.341 26.9474C869.843 27.4067 870.447 27.6364 871.152 27.6364Z" fill="white"/>
<path d="M491.506 29V27.7216L496.307 22.4659C496.87 21.8504 497.334 21.3153 497.699 20.8608C498.063 20.4015 498.333 19.9706 498.509 19.5682C498.688 19.161 498.778 18.7348 498.778 18.2898C498.778 17.7784 498.655 17.3357 498.409 16.9616C498.168 16.5876 497.836 16.2988 497.415 16.0952C496.993 15.8916 496.52 15.7898 495.994 15.7898C495.436 15.7898 494.948 15.9058 494.531 16.1378C494.119 16.3651 493.8 16.6847 493.572 17.0966C493.35 17.5085 493.239 17.9915 493.239 18.5455H491.562C491.562 17.6932 491.759 16.9451 492.152 16.3011C492.545 15.6572 493.08 15.1553 493.757 14.7955C494.439 14.4356 495.204 14.2557 496.051 14.2557C496.903 14.2557 497.659 14.4356 498.317 14.7955C498.975 15.1553 499.491 15.6406 499.865 16.2514C500.239 16.8622 500.426 17.5417 500.426 18.2898C500.426 18.8248 500.329 19.348 500.135 19.8594C499.946 20.366 499.614 20.9318 499.141 21.5568C498.672 22.1771 498.021 22.9347 497.188 23.8295L493.92 27.3239V27.4375H500.682V29H491.506ZM508.274 29.1989C507.299 29.1989 506.437 29.026 505.689 28.6804C504.946 28.33 504.366 27.8494 503.949 27.2386C503.532 26.6231 503.326 25.9223 503.331 25.1364C503.326 24.5208 503.447 23.9527 503.693 23.4318C503.939 22.9062 504.276 22.4683 504.702 22.1179C505.133 21.7628 505.613 21.5379 506.143 21.4432V21.358C505.447 21.178 504.893 20.7874 504.482 20.1861C504.07 19.58 503.866 18.8911 503.871 18.1193C503.866 17.3807 504.053 16.7202 504.432 16.1378C504.811 15.5554 505.331 15.0961 505.994 14.7599C506.662 14.4238 507.422 14.2557 508.274 14.2557C509.117 14.2557 509.87 14.4238 510.533 14.7599C511.196 15.0961 511.716 15.5554 512.095 16.1378C512.479 16.7202 512.673 17.3807 512.678 18.1193C512.673 18.8911 512.462 19.58 512.045 20.1861C511.634 20.7874 511.087 21.178 510.405 21.358V21.4432C510.93 21.5379 511.404 21.7628 511.825 22.1179C512.247 22.4683 512.583 22.9062 512.834 23.4318C513.085 23.9527 513.213 24.5208 513.217 25.1364C513.213 25.9223 513 26.6231 512.578 27.2386C512.161 27.8494 511.581 28.33 510.838 28.6804C510.099 29.026 509.245 29.1989 508.274 29.1989ZM508.274 27.6364C508.932 27.6364 509.5 27.5298 509.979 27.3168C510.457 27.1037 510.826 26.803 511.087 26.4148C511.347 26.0265 511.48 25.572 511.484 25.0511C511.48 24.5019 511.338 24.0166 511.058 23.5952C510.779 23.1738 510.398 22.8423 509.915 22.6009C509.437 22.3594 508.89 22.2386 508.274 22.2386C507.654 22.2386 507.1 22.3594 506.612 22.6009C506.129 22.8423 505.748 23.1738 505.469 23.5952C505.194 24.0166 505.059 24.5019 505.064 25.0511C505.059 25.572 505.185 26.0265 505.44 26.4148C505.701 26.803 506.072 27.1037 506.555 27.3168C507.038 27.5298 507.611 27.6364 508.274 27.6364ZM508.274 20.733C508.795 20.733 509.257 20.6288 509.659 20.4205C510.066 20.2121 510.386 19.9209 510.618 19.5469C510.85 19.1728 510.968 18.7348 510.973 18.233C510.968 17.7405 510.852 17.312 510.625 16.9474C510.398 16.5781 510.083 16.294 509.68 16.0952C509.278 15.8916 508.809 15.7898 508.274 15.7898C507.73 15.7898 507.254 15.8916 506.847 16.0952C506.439 16.294 506.125 16.5781 505.902 16.9474C505.679 17.312 505.571 17.7405 505.575 18.233C505.571 18.7348 505.682 19.1728 505.909 19.5469C506.141 19.9209 506.461 20.2121 506.868 20.4205C507.275 20.6288 507.744 20.733 508.274 20.733ZM520.684 29.1989C519.614 29.1989 518.702 28.9077 517.949 28.3253C517.196 27.7382 516.621 26.8883 516.223 25.7756C515.826 24.6581 515.627 23.3087 515.627 21.7273C515.627 20.1553 515.826 18.813 516.223 17.7003C516.626 16.5829 517.203 15.7306 517.956 15.1435C518.714 14.5516 519.623 14.2557 520.684 14.2557C521.744 14.2557 522.651 14.5516 523.404 15.1435C524.161 15.7306 524.739 16.5829 525.137 17.7003C525.539 18.813 525.74 20.1553 525.74 21.7273C525.74 23.3087 525.542 24.6581 525.144 25.7756C524.746 26.8883 524.171 27.7382 523.418 28.3253C522.665 28.9077 521.754 29.1989 520.684 29.1989ZM520.684 27.6364C521.744 27.6364 522.568 27.125 523.155 26.1023C523.742 25.0795 524.036 23.6212 524.036 21.7273C524.036 20.4678 523.901 19.3954 523.631 18.5099C523.366 17.6245 522.982 16.9498 522.48 16.4858C521.983 16.0218 521.384 15.7898 520.684 15.7898C519.632 15.7898 518.811 16.3082 518.219 17.3452C517.627 18.3774 517.331 19.8381 517.331 21.7273C517.331 22.9867 517.464 24.0568 517.729 24.9375C517.994 25.8182 518.375 26.4882 518.873 26.9474C519.374 27.4067 519.978 27.6364 520.684 27.6364Z" fill="white"/>
<path d="M392.506 29V27.7216L397.307 22.4659C397.87 21.8504 398.334 21.3153 398.699 20.8608C399.063 20.4015 399.333 19.9706 399.509 19.5682C399.688 19.161 399.778 18.7348 399.778 18.2898C399.778 17.7784 399.655 17.3357 399.409 16.9616C399.168 16.5876 398.836 16.2988 398.415 16.0952C397.993 15.8916 397.52 15.7898 396.994 15.7898C396.436 15.7898 395.948 15.9058 395.531 16.1378C395.119 16.3651 394.8 16.6847 394.572 17.0966C394.35 17.5085 394.239 17.9915 394.239 18.5455H392.562C392.562 17.6932 392.759 16.9451 393.152 16.3011C393.545 15.6572 394.08 15.1553 394.757 14.7955C395.439 14.4356 396.204 14.2557 397.051 14.2557C397.903 14.2557 398.659 14.4356 399.317 14.7955C399.975 15.1553 400.491 15.6406 400.865 16.2514C401.239 16.8622 401.426 17.5417 401.426 18.2898C401.426 18.8248 401.329 19.348 401.135 19.8594C400.946 20.366 400.614 20.9318 400.141 21.5568C399.672 22.1771 399.021 22.9347 398.188 23.8295L394.92 27.3239V27.4375H401.682V29H392.506ZM409.445 29.1989C408.848 29.1894 408.251 29.0758 407.655 28.858C407.058 28.6402 406.514 28.2732 406.021 27.7571C405.529 27.2363 405.134 26.5331 404.835 25.6477C404.537 24.7576 404.388 23.6402 404.388 22.2955C404.388 21.0076 404.509 19.8665 404.75 18.8722C404.991 17.8731 405.342 17.0327 405.801 16.3509C406.26 15.6643 406.814 15.1435 407.463 14.7884C408.116 14.4332 408.853 14.2557 409.672 14.2557C410.486 14.2557 411.211 14.419 411.845 14.7457C412.484 15.0677 413.005 15.5175 413.408 16.0952C413.81 16.6728 414.071 17.3381 414.189 18.0909H412.456C412.295 17.4375 411.982 16.8954 411.518 16.4645C411.054 16.0336 410.439 15.8182 409.672 15.8182C408.545 15.8182 407.657 16.3082 407.009 17.2884C406.365 18.2685 406.04 19.6439 406.036 21.4148H406.149C406.414 21.0123 406.729 20.669 407.094 20.3849C407.463 20.0961 407.87 19.8736 408.315 19.7173C408.76 19.5611 409.232 19.483 409.729 19.483C410.562 19.483 411.324 19.6913 412.016 20.108C412.707 20.5199 413.261 21.0904 413.678 21.8196C414.094 22.544 414.303 23.375 414.303 24.3125C414.303 25.2121 414.101 26.036 413.699 26.7841C413.296 27.5275 412.731 28.1193 412.001 28.5597C411.277 28.9953 410.425 29.2083 409.445 29.1989ZM409.445 27.6364C410.041 27.6364 410.576 27.4872 411.05 27.1889C411.528 26.8906 411.904 26.4905 412.179 25.9886C412.458 25.4867 412.598 24.928 412.598 24.3125C412.598 23.7112 412.463 23.1643 412.193 22.6719C411.928 22.1747 411.561 21.7794 411.092 21.4858C410.628 21.1922 410.098 21.0455 409.501 21.0455C409.052 21.0455 408.633 21.1354 408.244 21.3153C407.856 21.4905 407.515 21.732 407.222 22.0398C406.933 22.3475 406.705 22.7003 406.54 23.098C406.374 23.491 406.291 23.9053 406.291 24.3409C406.291 24.9186 406.426 25.4583 406.696 25.9602C406.971 26.4621 407.345 26.867 407.818 27.1747C408.296 27.4825 408.839 27.6364 409.445 27.6364ZM421.84 29.1989C420.77 29.1989 419.858 28.9077 419.105 28.3253C418.353 27.7382 417.777 26.8883 417.38 25.7756C416.982 24.6581 416.783 23.3087 416.783 21.7273C416.783 20.1553 416.982 18.813 417.38 17.7003C417.782 16.5829 418.36 15.7306 419.113 15.1435C419.87 14.5516 420.779 14.2557 421.84 14.2557C422.9 14.2557 423.807 14.5516 424.56 15.1435C425.318 15.7306 425.895 16.5829 426.293 17.7003C426.695 18.813 426.897 20.1553 426.897 21.7273C426.897 23.3087 426.698 24.6581 426.3 25.7756C425.902 26.8883 425.327 27.7382 424.574 28.3253C423.821 28.9077 422.91 29.1989 421.84 29.1989ZM421.84 27.6364C422.9 27.6364 423.724 27.125 424.311 26.1023C424.899 25.0795 425.192 23.6212 425.192 21.7273C425.192 20.4678 425.057 19.3954 424.787 18.5099C424.522 17.6245 424.139 16.9498 423.637 16.4858C423.14 16.0218 422.541 15.7898 421.84 15.7898C420.789 15.7898 419.967 16.3082 419.375 17.3452C418.783 18.3774 418.488 19.8381 418.488 21.7273C418.488 22.9867 418.62 24.0568 418.885 24.9375C419.15 25.8182 419.532 26.4882 420.029 26.9474C420.531 27.4067 421.134 27.6364 421.84 27.6364Z" fill="white"/>
<path d="M342.506 29V27.7216L347.307 22.4659C347.87 21.8504 348.334 21.3153 348.699 20.8608C349.063 20.4015 349.333 19.9706 349.509 19.5682C349.688 19.161 349.778 18.7348 349.778 18.2898C349.778 17.7784 349.655 17.3357 349.409 16.9616C349.168 16.5876 348.836 16.2988 348.415 16.0952C347.993 15.8916 347.52 15.7898 346.994 15.7898C346.436 15.7898 345.948 15.9058 345.531 16.1378C345.119 16.3651 344.8 16.6847 344.572 17.0966C344.35 17.5085 344.239 17.9915 344.239 18.5455H342.562C342.562 17.6932 342.759 16.9451 343.152 16.3011C343.545 15.6572 344.08 15.1553 344.757 14.7955C345.439 14.4356 346.204 14.2557 347.051 14.2557C347.903 14.2557 348.659 14.4356 349.317 14.7955C349.975 15.1553 350.491 15.6406 350.865 16.2514C351.239 16.8622 351.426 17.5417 351.426 18.2898C351.426 18.8248 351.329 19.348 351.135 19.8594C350.946 20.366 350.614 20.9318 350.141 21.5568C349.672 22.1771 349.021 22.9347 348.188 23.8295L344.92 27.3239V27.4375H351.682V29H342.506ZM359.161 29.1989C358.327 29.1989 357.577 29.0331 356.909 28.7017C356.241 28.3703 355.706 27.9157 355.304 27.3381C354.902 26.7604 354.681 26.1023 354.643 25.3636H356.348C356.414 26.0218 356.713 26.5663 357.243 26.9972C357.778 27.4233 358.417 27.6364 359.161 27.6364C359.757 27.6364 360.287 27.4967 360.751 27.2173C361.22 26.938 361.587 26.5545 361.852 26.0668C362.122 25.5743 362.257 25.018 362.257 24.3977C362.257 23.7633 362.117 23.1974 361.838 22.7003C361.563 22.1984 361.185 21.803 360.702 21.5142C360.219 21.2254 359.667 21.0786 359.047 21.0739C358.602 21.0691 358.145 21.1378 357.676 21.2798C357.207 21.4171 356.821 21.5947 356.518 21.8125L354.871 21.6136L355.751 14.4545H363.308V16.017H357.229L356.717 20.3068H356.803C357.101 20.0701 357.475 19.8736 357.925 19.7173C358.375 19.5611 358.843 19.483 359.331 19.483C360.221 19.483 361.014 19.696 361.71 20.1222C362.411 20.5436 362.96 21.1212 363.358 21.8551C363.76 22.589 363.962 23.4271 363.962 24.3693C363.962 25.2973 363.753 26.1259 363.337 26.8551C362.925 27.5795 362.357 28.1525 361.632 28.5739C360.908 28.9905 360.084 29.1989 359.161 29.1989ZM371.527 29.1989C370.457 29.1989 369.546 28.9077 368.793 28.3253C368.04 27.7382 367.465 26.8883 367.067 25.7756C366.669 24.6581 366.471 23.3087 366.471 21.7273C366.471 20.1553 366.669 18.813 367.067 17.7003C367.47 16.5829 368.047 15.7306 368.8 15.1435C369.558 14.5516 370.467 14.2557 371.527 14.2557C372.588 14.2557 373.495 14.5516 374.248 15.1435C375.005 15.7306 375.583 16.5829 375.98 17.7003C376.383 18.813 376.584 20.1553 376.584 21.7273C376.584 23.3087 376.385 24.6581 375.988 25.7756C375.59 26.8883 375.015 27.7382 374.262 28.3253C373.509 28.9077 372.597 29.1989 371.527 29.1989ZM371.527 27.6364C372.588 27.6364 373.412 27.125 373.999 26.1023C374.586 25.0795 374.88 23.6212 374.88 21.7273C374.88 20.4678 374.745 19.3954 374.475 18.5099C374.21 17.6245 373.826 16.9498 373.324 16.4858C372.827 16.0218 372.228 15.7898 371.527 15.7898C370.476 15.7898 369.655 16.3082 369.063 17.3452C368.471 18.3774 368.175 19.8381 368.175 21.7273C368.175 22.9867 368.308 24.0568 368.573 24.9375C368.838 25.8182 369.219 26.4882 369.716 26.9474C370.218 27.4067 370.822 27.6364 371.527 27.6364Z" fill="white"/>
<path d="M92.5057 29V27.7216L97.3068 22.4659C97.8703 21.8504 98.3343 21.3153 98.6989 20.8608C99.0634 20.4015 99.3333 19.9706 99.5085 19.5682C99.6884 19.161 99.7784 18.7348 99.7784 18.2898C99.7784 17.7784 99.6553 17.3357 99.4091 16.9616C99.1676 16.5876 98.8362 16.2988 98.4148 16.0952C97.9934 15.8916 97.5199 15.7898 96.9943 15.7898C96.4356 15.7898 95.9479 15.9058 95.5312 16.1378C95.1193 16.3651 94.7997 16.6847 94.5724 17.0966C94.3499 17.5085 94.2386 17.9915 94.2386 18.5455H92.5625C92.5625 17.6932 92.759 16.9451 93.152 16.3011C93.545 15.6572 94.08 15.1553 94.7571 14.7955C95.4389 14.4356 96.2036 14.2557 97.0511 14.2557C97.9034 14.2557 98.6586 14.4356 99.3168 14.7955C99.9749 15.1553 100.491 15.6406 100.865 16.2514C101.239 16.8622 101.426 17.5417 101.426 18.2898C101.426 18.8248 101.329 19.348 101.135 19.8594C100.946 20.366 100.614 20.9318 100.141 21.5568C99.6719 22.1771 99.0208 22.9347 98.1875 23.8295L94.9205 27.3239V27.4375H101.682V29H92.5057ZM109.359 29.1989C108.289 29.1989 107.378 28.9077 106.625 28.3253C105.872 27.7382 105.297 26.8883 104.899 25.7756C104.501 24.6581 104.303 23.3087 104.303 21.7273C104.303 20.1553 104.501 18.813 104.899 17.7003C105.302 16.5829 105.879 15.7306 106.632 15.1435C107.39 14.5516 108.299 14.2557 109.359 14.2557C110.42 14.2557 111.327 14.5516 112.08 15.1435C112.837 15.7306 113.415 16.5829 113.812 17.7003C114.215 18.813 114.416 20.1553 114.416 21.7273C114.416 23.3087 114.217 24.6581 113.82 25.7756C113.422 26.8883 112.847 27.7382 112.094 28.3253C111.341 28.9077 110.429 29.1989 109.359 29.1989ZM109.359 27.6364C110.42 27.6364 111.244 27.125 111.831 26.1023C112.418 25.0795 112.712 23.6212 112.712 21.7273C112.712 20.4678 112.577 19.3954 112.307 18.5099C112.042 17.6245 111.658 16.9498 111.156 16.4858C110.659 16.0218 110.06 15.7898 109.359 15.7898C108.308 15.7898 107.487 16.3082 106.895 17.3452C106.303 18.3774 106.007 19.8381 106.007 21.7273C106.007 22.9867 106.14 24.0568 106.405 24.9375C106.67 25.8182 107.051 26.4882 107.548 26.9474C108.05 27.4067 108.654 27.6364 109.359 27.6364ZM121.859 29.1989C120.789 29.1989 119.878 28.9077 119.125 28.3253C118.372 27.7382 117.797 26.8883 117.399 25.7756C117.001 24.6581 116.803 23.3087 116.803 21.7273C116.803 20.1553 117.001 18.813 117.399 17.7003C117.802 16.5829 118.379 15.7306 119.132 15.1435C119.89 14.5516 120.799 14.2557 121.859 14.2557C122.92 14.2557 123.827 14.5516 124.58 15.1435C125.337 15.7306 125.915 16.5829 126.312 17.7003C126.715 18.813 126.916 20.1553 126.916 21.7273C126.916 23.3087 126.717 24.6581 126.32 25.7756C125.922 26.8883 125.347 27.7382 124.594 28.3253C123.841 28.9077 122.929 29.1989 121.859 29.1989ZM121.859 27.6364C122.92 27.6364 123.744 27.125 124.331 26.1023C124.918 25.0795 125.212 23.6212 125.212 21.7273C125.212 20.4678 125.077 19.3954 124.807 18.5099C124.542 17.6245 124.158 16.9498 123.656 16.4858C123.159 16.0218 122.56 15.7898 121.859 15.7898C120.808 15.7898 119.987 16.3082 119.395 17.3452C118.803 18.3774 118.507 19.8381 118.507 21.7273C118.507 22.9867 118.64 24.0568 118.905 24.9375C119.17 25.8182 119.551 26.4882 120.048 26.9474C120.55 27.4067 121.154 27.6364 121.859 27.6364Z" fill="white"/>
<path d="M47.6193 14.4545V29H45.858V16.3011H45.7727L42.2216 18.6591V16.8693L45.858 14.4545H47.6193ZM56.4332 14.2557C57.0298 14.2604 57.6264 14.3741 58.223 14.5966C58.8196 14.8191 59.3641 15.1884 59.8565 15.7045C60.349 16.2159 60.7443 16.9143 61.0426 17.7997C61.3409 18.6851 61.4901 19.7955 61.4901 21.1307C61.4901 22.4233 61.367 23.5715 61.1207 24.5753C60.8793 25.5743 60.5289 26.4171 60.0696 27.1037C59.6151 27.7902 59.0611 28.3111 58.4077 28.6662C57.759 29.0213 57.0251 29.1989 56.206 29.1989C55.3916 29.1989 54.6648 29.0379 54.0256 28.7159C53.3911 28.3892 52.8703 27.937 52.4631 27.3594C52.0606 26.777 51.8026 26.1023 51.6889 25.3352H53.4219C53.5781 26.0028 53.8883 26.5545 54.3523 26.9901C54.821 27.4209 55.4389 27.6364 56.206 27.6364C57.3281 27.6364 58.2135 27.1463 58.8622 26.1662C59.5156 25.1861 59.8423 23.8011 59.8423 22.0114H59.7287C59.4635 22.4091 59.1487 22.7524 58.7841 23.0412C58.4195 23.33 58.0147 23.5526 57.5696 23.7088C57.1245 23.8651 56.651 23.9432 56.1491 23.9432C55.3158 23.9432 54.5511 23.7372 53.8551 23.3253C53.1638 22.9086 52.6098 22.3381 52.1932 21.6136C51.7812 20.8845 51.5753 20.0511 51.5753 19.1136C51.5753 18.2235 51.7741 17.4091 52.1719 16.6705C52.5743 15.9271 53.1378 15.3352 53.8622 14.8949C54.5914 14.4545 55.4484 14.2415 56.4332 14.2557ZM56.4332 15.8182C55.8366 15.8182 55.2992 15.9673 54.821 16.2656C54.3475 16.5592 53.9711 16.9569 53.6918 17.4588C53.4171 17.956 53.2798 18.5076 53.2798 19.1136C53.2798 19.7197 53.4124 20.2713 53.6776 20.7685C53.9474 21.2609 54.3144 21.6539 54.7784 21.9474C55.2472 22.2363 55.7798 22.3807 56.3764 22.3807C56.8262 22.3807 57.2453 22.2931 57.6335 22.1179C58.0218 21.938 58.3603 21.6941 58.6491 21.3864C58.9427 21.0739 59.1723 20.7211 59.3381 20.3281C59.5038 19.9304 59.5866 19.5161 59.5866 19.0852C59.5866 18.517 59.4493 17.9844 59.1747 17.4872C58.9048 16.9901 58.5308 16.5876 58.0526 16.2798C57.5791 15.9721 57.0393 15.8182 56.4332 15.8182ZM69.0273 29.1989C67.9573 29.1989 67.0458 28.9077 66.293 28.3253C65.5401 27.7382 64.9648 26.8883 64.5671 25.7756C64.1694 24.6581 63.9705 23.3087 63.9705 21.7273C63.9705 20.1553 64.1694 18.813 64.5671 17.7003C64.9696 16.5829 65.5472 15.7306 66.3001 15.1435C67.0576 14.5516 67.9667 14.2557 69.0273 14.2557C70.0879 14.2557 70.9947 14.5516 71.7475 15.1435C72.5051 15.7306 73.0827 16.5829 73.4805 17.7003C73.8829 18.813 74.0842 20.1553 74.0842 21.7273C74.0842 23.3087 73.8853 24.6581 73.4876 25.7756C73.0898 26.8883 72.5146 27.7382 71.7617 28.3253C71.0089 28.9077 70.0974 29.1989 69.0273 29.1989ZM69.0273 27.6364C70.0879 27.6364 70.9118 27.125 71.4989 26.1023C72.0861 25.0795 72.3796 23.6212 72.3796 21.7273C72.3796 20.4678 72.2447 19.3954 71.9748 18.5099C71.7096 17.6245 71.3261 16.9498 70.8242 16.4858C70.3271 16.0218 69.7281 15.7898 69.0273 15.7898C67.9762 15.7898 67.1547 16.3082 66.5629 17.3452C65.971 18.3774 65.6751 19.8381 65.6751 21.7273C65.6751 22.9867 65.8076 24.0568 66.0728 24.9375C66.3379 25.8182 66.7191 26.4882 67.2163 26.9474C67.7182 27.4067 68.3219 27.6364 69.0273 27.6364Z" fill="white"/>
<path d="M142.506 29V27.7216L147.307 22.4659C147.87 21.8504 148.334 21.3153 148.699 20.8608C149.063 20.4015 149.333 19.9706 149.509 19.5682C149.688 19.161 149.778 18.7348 149.778 18.2898C149.778 17.7784 149.655 17.3357 149.409 16.9616C149.168 16.5876 148.836 16.2988 148.415 16.0952C147.993 15.8916 147.52 15.7898 146.994 15.7898C146.436 15.7898 145.948 15.9058 145.531 16.1378C145.119 16.3651 144.8 16.6847 144.572 17.0966C144.35 17.5085 144.239 17.9915 144.239 18.5455H142.562C142.562 17.6932 142.759 16.9451 143.152 16.3011C143.545 15.6572 144.08 15.1553 144.757 14.7955C145.439 14.4356 146.204 14.2557 147.051 14.2557C147.903 14.2557 148.659 14.4356 149.317 14.7955C149.975 15.1553 150.491 15.6406 150.865 16.2514C151.239 16.8622 151.426 17.5417 151.426 18.2898C151.426 18.8248 151.329 19.348 151.135 19.8594C150.946 20.366 150.614 20.9318 150.141 21.5568C149.672 22.1771 149.021 22.9347 148.188 23.8295L144.92 27.3239V27.4375H151.682V29H142.506ZM159.729 14.4545V29H157.967V16.3011H157.882L154.331 18.6591V16.8693L157.967 14.4545H159.729ZM168.656 29.1989C167.586 29.1989 166.675 28.9077 165.922 28.3253C165.169 27.7382 164.594 26.8883 164.196 25.7756C163.798 24.6581 163.599 23.3087 163.599 21.7273C163.599 20.1553 163.798 18.813 164.196 17.7003C164.598 16.5829 165.176 15.7306 165.929 15.1435C166.687 14.5516 167.596 14.2557 168.656 14.2557C169.717 14.2557 170.624 14.5516 171.376 15.1435C172.134 15.7306 172.712 16.5829 173.109 17.7003C173.512 18.813 173.713 20.1553 173.713 21.7273C173.713 23.3087 173.514 24.6581 173.116 25.7756C172.719 26.8883 172.143 27.7382 171.391 28.3253C170.638 28.9077 169.726 29.1989 168.656 29.1989ZM168.656 27.6364C169.717 27.6364 170.541 27.125 171.128 26.1023C171.715 25.0795 172.009 23.6212 172.009 21.7273C172.009 20.4678 171.874 19.3954 171.604 18.5099C171.339 17.6245 170.955 16.9498 170.453 16.4858C169.956 16.0218 169.357 15.7898 168.656 15.7898C167.605 15.7898 166.784 16.3082 166.192 17.3452C165.6 18.3774 165.304 19.8381 165.304 21.7273C165.304 22.9867 165.437 24.0568 165.702 24.9375C165.967 25.8182 166.348 26.4882 166.845 26.9474C167.347 27.4067 167.951 27.6364 168.656 27.6364Z" fill="white"/>
<path d="M192.506 29V27.7216L197.307 22.4659C197.87 21.8504 198.334 21.3153 198.699 20.8608C199.063 20.4015 199.333 19.9706 199.509 19.5682C199.688 19.161 199.778 18.7348 199.778 18.2898C199.778 17.7784 199.655 17.3357 199.409 16.9616C199.168 16.5876 198.836 16.2988 198.415 16.0952C197.993 15.8916 197.52 15.7898 196.994 15.7898C196.436 15.7898 195.948 15.9058 195.531 16.1378C195.119 16.3651 194.8 16.6847 194.572 17.0966C194.35 17.5085 194.239 17.9915 194.239 18.5455H192.562C192.562 17.6932 192.759 16.9451 193.152 16.3011C193.545 15.6572 194.08 15.1553 194.757 14.7955C195.439 14.4356 196.204 14.2557 197.051 14.2557C197.903 14.2557 198.659 14.4356 199.317 14.7955C199.975 15.1553 200.491 15.6406 200.865 16.2514C201.239 16.8622 201.426 17.5417 201.426 18.2898C201.426 18.8248 201.329 19.348 201.135 19.8594C200.946 20.366 200.614 20.9318 200.141 21.5568C199.672 22.1771 199.021 22.9347 198.188 23.8295L194.92 27.3239V27.4375H201.682V29H192.506ZM204.615 29V27.7216L209.416 22.4659C209.98 21.8504 210.444 21.3153 210.808 20.8608C211.173 20.4015 211.443 19.9706 211.618 19.5682C211.798 19.161 211.888 18.7348 211.888 18.2898C211.888 17.7784 211.765 17.3357 211.518 16.9616C211.277 16.5876 210.946 16.2988 210.524 16.0952C210.103 15.8916 209.629 15.7898 209.104 15.7898C208.545 15.7898 208.057 15.9058 207.641 16.1378C207.229 16.3651 206.909 16.6847 206.682 17.0966C206.459 17.5085 206.348 17.9915 206.348 18.5455H204.672C204.672 17.6932 204.868 16.9451 205.261 16.3011C205.654 15.6572 206.189 15.1553 206.866 14.7955C207.548 14.4356 208.313 14.2557 209.161 14.2557C210.013 14.2557 210.768 14.4356 211.426 14.7955C212.084 15.1553 212.6 15.6406 212.974 16.2514C213.348 16.8622 213.536 17.5417 213.536 18.2898C213.536 18.8248 213.438 19.348 213.244 19.8594C213.055 20.366 212.723 20.9318 212.25 21.5568C211.781 22.1771 211.13 22.9347 210.297 23.8295L207.03 27.3239V27.4375H213.791V29H204.615ZM221.469 29.1989C220.399 29.1989 219.487 28.9077 218.734 28.3253C217.982 27.7382 217.406 26.8883 217.009 25.7756C216.611 24.6581 216.412 23.3087 216.412 21.7273C216.412 20.1553 216.611 18.813 217.009 17.7003C217.411 16.5829 217.989 15.7306 218.741 15.1435C219.499 14.5516 220.408 14.2557 221.469 14.2557C222.529 14.2557 223.436 14.5516 224.189 15.1435C224.946 15.7306 225.524 16.5829 225.922 17.7003C226.324 18.813 226.526 20.1553 226.526 21.7273C226.526 23.3087 226.327 24.6581 225.929 25.7756C225.531 26.8883 224.956 27.7382 224.203 28.3253C223.45 28.9077 222.539 29.1989 221.469 29.1989ZM221.469 27.6364C222.529 27.6364 223.353 27.125 223.94 26.1023C224.527 25.0795 224.821 23.6212 224.821 21.7273C224.821 20.4678 224.686 19.3954 224.416 18.5099C224.151 17.6245 223.768 16.9498 223.266 16.4858C222.768 16.0218 222.17 15.7898 221.469 15.7898C220.418 15.7898 219.596 16.3082 219.004 17.3452C218.412 18.3774 218.116 19.8381 218.116 21.7273C218.116 22.9867 218.249 24.0568 218.514 24.9375C218.779 25.8182 219.161 26.4882 219.658 26.9474C220.16 27.4067 220.763 27.6364 221.469 27.6364Z" fill="white"/>
<path d="M242.506 29V27.7216L247.307 22.4659C247.87 21.8504 248.334 21.3153 248.699 20.8608C249.063 20.4015 249.333 19.9706 249.509 19.5682C249.688 19.161 249.778 18.7348 249.778 18.2898C249.778 17.7784 249.655 17.3357 249.409 16.9616C249.168 16.5876 248.836 16.2988 248.415 16.0952C247.993 15.8916 247.52 15.7898 246.994 15.7898C246.436 15.7898 245.948 15.9058 245.531 16.1378C245.119 16.3651 244.8 16.6847 244.572 17.0966C244.35 17.5085 244.239 17.9915 244.239 18.5455H242.562C242.562 17.6932 242.759 16.9451 243.152 16.3011C243.545 15.6572 244.08 15.1553 244.757 14.7955C245.439 14.4356 246.204 14.2557 247.051 14.2557C247.903 14.2557 248.659 14.4356 249.317 14.7955C249.975 15.1553 250.491 15.6406 250.865 16.2514C251.239 16.8622 251.426 17.5417 251.426 18.2898C251.426 18.8248 251.329 19.348 251.135 19.8594C250.946 20.366 250.614 20.9318 250.141 21.5568C249.672 22.1771 249.021 22.9347 248.188 23.8295L244.92 27.3239V27.4375H251.682V29H242.506ZM259.53 29.1989C258.592 29.1989 257.757 29.0379 257.023 28.7159C256.294 28.3939 255.714 27.9465 255.283 27.3736C254.857 26.7959 254.625 26.1259 254.587 25.3636H256.376C256.414 25.8324 256.575 26.2372 256.859 26.5781C257.143 26.9143 257.515 27.1747 257.974 27.3594C258.434 27.544 258.943 27.6364 259.501 27.6364C260.126 27.6364 260.68 27.5275 261.163 27.3097C261.646 27.0919 262.025 26.7888 262.3 26.4006C262.574 26.0123 262.712 25.5625 262.712 25.0511C262.712 24.5161 262.579 24.045 262.314 23.6378C262.049 23.2259 261.661 22.9039 261.149 22.6719C260.638 22.4399 260.013 22.3239 259.274 22.3239H258.109V20.7614H259.274C259.852 20.7614 260.358 20.6572 260.794 20.4489C261.234 20.2405 261.578 19.947 261.824 19.5682C262.075 19.1894 262.2 18.7443 262.2 18.233C262.2 17.7405 262.091 17.312 261.874 16.9474C261.656 16.5829 261.348 16.2988 260.95 16.0952C260.557 15.8916 260.093 15.7898 259.558 15.7898C259.056 15.7898 258.583 15.8821 258.138 16.0668C257.697 16.2467 257.338 16.5095 257.058 16.8551C256.779 17.196 256.627 17.608 256.604 18.0909H254.899C254.928 17.3286 255.157 16.661 255.588 16.0881C256.019 15.5104 256.582 15.0606 257.278 14.7386C257.979 14.4167 258.749 14.2557 259.587 14.2557C260.486 14.2557 261.258 14.438 261.902 14.8026C262.546 15.1624 263.041 15.6383 263.386 16.2301C263.732 16.822 263.905 17.4612 263.905 18.1477C263.905 18.9669 263.689 19.6652 263.259 20.2429C262.832 20.8205 262.252 21.2206 261.518 21.4432V21.5568C262.437 21.7083 263.154 22.099 263.67 22.7287C264.187 23.3537 264.445 24.1278 264.445 25.0511C264.445 25.8419 264.229 26.5521 263.798 27.1818C263.372 27.8068 262.79 28.2992 262.051 28.6591C261.313 29.0189 260.472 29.1989 259.53 29.1989ZM272.094 29.1989C271.024 29.1989 270.112 28.9077 269.359 28.3253C268.607 27.7382 268.031 26.8883 267.634 25.7756C267.236 24.6581 267.037 23.3087 267.037 21.7273C267.037 20.1553 267.236 18.813 267.634 17.7003C268.036 16.5829 268.614 15.7306 269.366 15.1435C270.124 14.5516 271.033 14.2557 272.094 14.2557C273.154 14.2557 274.061 14.5516 274.814 15.1435C275.571 15.7306 276.149 16.5829 276.547 17.7003C276.949 18.813 277.151 20.1553 277.151 21.7273C277.151 23.3087 276.952 24.6581 276.554 25.7756C276.156 26.8883 275.581 27.7382 274.828 28.3253C274.075 28.9077 273.164 29.1989 272.094 29.1989ZM272.094 27.6364C273.154 27.6364 273.978 27.125 274.565 26.1023C275.152 25.0795 275.446 23.6212 275.446 21.7273C275.446 20.4678 275.311 19.3954 275.041 18.5099C274.776 17.6245 274.393 16.9498 273.891 16.4858C273.393 16.0218 272.795 15.7898 272.094 15.7898C271.043 15.7898 270.221 16.3082 269.629 17.3452C269.037 18.3774 268.741 19.8381 268.741 21.7273C268.741 22.9867 268.874 24.0568 269.139 24.9375C269.404 25.8182 269.786 26.4882 270.283 26.9474C270.785 27.4067 271.388 27.6364 272.094 27.6364Z" fill="white"/>
<path d="M293.506 29V27.7216L298.307 22.4659C298.87 21.8504 299.334 21.3153 299.699 20.8608C300.063 20.4015 300.333 19.9706 300.509 19.5682C300.688 19.161 300.778 18.7348 300.778 18.2898C300.778 17.7784 300.655 17.3357 300.409 16.9616C300.168 16.5876 299.836 16.2988 299.415 16.0952C298.993 15.8916 298.52 15.7898 297.994 15.7898C297.436 15.7898 296.948 15.9058 296.531 16.1378C296.119 16.3651 295.8 16.6847 295.572 17.0966C295.35 17.5085 295.239 17.9915 295.239 18.5455H293.562C293.562 17.6932 293.759 16.9451 294.152 16.3011C294.545 15.6572 295.08 15.1553 295.757 14.7955C296.439 14.4356 297.204 14.2557 298.051 14.2557C298.903 14.2557 299.659 14.4356 300.317 14.7955C300.975 15.1553 301.491 15.6406 301.865 16.2514C302.239 16.8622 302.426 17.5417 302.426 18.2898C302.426 18.8248 302.329 19.348 302.135 19.8594C301.946 20.366 301.614 20.9318 301.141 21.5568C300.672 22.1771 300.021 22.9347 299.188 23.8295L295.92 27.3239V27.4375H302.682V29H293.506ZM304.962 26.017V24.5682L311.354 14.4545H312.405V16.6989H311.695L306.865 24.3409V24.4545H315.473V26.017H304.962ZM311.808 29V25.5767V24.902V14.4545H313.484V29H311.808ZM322.879 29.1989C321.809 29.1989 320.897 28.9077 320.145 28.3253C319.392 27.7382 318.816 26.8883 318.419 25.7756C318.021 24.6581 317.822 23.3087 317.822 21.7273C317.822 20.1553 318.021 18.813 318.419 17.7003C318.821 16.5829 319.399 15.7306 320.152 15.1435C320.909 14.5516 321.818 14.2557 322.879 14.2557C323.94 14.2557 324.846 14.5516 325.599 15.1435C326.357 15.7306 326.934 16.5829 327.332 17.7003C327.734 18.813 327.936 20.1553 327.936 21.7273C327.936 23.3087 327.737 24.6581 327.339 25.7756C326.941 26.8883 326.366 27.7382 325.613 28.3253C324.86 28.9077 323.949 29.1989 322.879 29.1989ZM322.879 27.6364C323.94 27.6364 324.763 27.125 325.35 26.1023C325.938 25.0795 326.231 23.6212 326.231 21.7273C326.231 20.4678 326.096 19.3954 325.826 18.5099C325.561 17.6245 325.178 16.9498 324.676 16.4858C324.179 16.0218 323.58 15.7898 322.879 15.7898C321.828 15.7898 321.006 16.3082 320.414 17.3452C319.823 18.3774 319.527 19.8381 319.527 21.7273C319.527 22.9867 319.659 24.0568 319.924 24.9375C320.19 25.8182 320.571 26.4882 321.068 26.9474C321.57 27.4067 322.173 27.6364 322.879 27.6364Z" fill="white"/>
<path d="M541.506 29V27.7216L546.307 22.4659C546.87 21.8504 547.334 21.3153 547.699 20.8608C548.063 20.4015 548.333 19.9706 548.509 19.5682C548.688 19.161 548.778 18.7348 548.778 18.2898C548.778 17.7784 548.655 17.3357 548.409 16.9616C548.168 16.5876 547.836 16.2988 547.415 16.0952C546.993 15.8916 546.52 15.7898 545.994 15.7898C545.436 15.7898 544.948 15.9058 544.531 16.1378C544.119 16.3651 543.8 16.6847 543.572 17.0966C543.35 17.5085 543.239 17.9915 543.239 18.5455H541.562C541.562 17.6932 541.759 16.9451 542.152 16.3011C542.545 15.6572 543.08 15.1553 543.757 14.7955C544.439 14.4356 545.204 14.2557 546.051 14.2557C546.903 14.2557 547.659 14.4356 548.317 14.7955C548.975 15.1553 549.491 15.6406 549.865 16.2514C550.239 16.8622 550.426 17.5417 550.426 18.2898C550.426 18.8248 550.329 19.348 550.135 19.8594C549.946 20.366 549.614 20.9318 549.141 21.5568C548.672 22.1771 548.021 22.9347 547.188 23.8295L543.92 27.3239V27.4375H550.682V29H541.506ZM558.246 14.2557C558.842 14.2604 559.439 14.3741 560.036 14.5966C560.632 14.8191 561.177 15.1884 561.669 15.7045C562.161 16.2159 562.557 16.9143 562.855 17.7997C563.153 18.6851 563.303 19.7955 563.303 21.1307C563.303 22.4233 563.179 23.5715 562.933 24.5753C562.692 25.5743 562.341 26.4171 561.882 27.1037C561.428 27.7902 560.874 28.3111 560.22 28.6662C559.571 29.0213 558.838 29.1989 558.018 29.1989C557.204 29.1989 556.477 29.0379 555.838 28.7159C555.204 28.3892 554.683 27.937 554.276 27.3594C553.873 26.777 553.615 26.1023 553.501 25.3352H555.234C555.391 26.0028 555.701 26.5545 556.165 26.9901C556.634 27.4209 557.251 27.6364 558.018 27.6364C559.141 27.6364 560.026 27.1463 560.675 26.1662C561.328 25.1861 561.655 23.8011 561.655 22.0114H561.541C561.276 22.4091 560.961 22.7524 560.597 23.0412C560.232 23.33 559.827 23.5526 559.382 23.7088C558.937 23.8651 558.464 23.9432 557.962 23.9432C557.128 23.9432 556.364 23.7372 555.668 23.3253C554.976 22.9086 554.422 22.3381 554.006 21.6136C553.594 20.8845 553.388 20.0511 553.388 19.1136C553.388 18.2235 553.587 17.4091 553.984 16.6705C554.387 15.9271 554.95 15.3352 555.675 14.8949C556.404 14.4545 557.261 14.2415 558.246 14.2557ZM558.246 15.8182C557.649 15.8182 557.112 15.9673 556.634 16.2656C556.16 16.5592 555.784 16.9569 555.504 17.4588C555.23 17.956 555.092 18.5076 555.092 19.1136C555.092 19.7197 555.225 20.2713 555.49 20.7685C555.76 21.2609 556.127 21.6539 556.591 21.9474C557.06 22.2363 557.592 22.3807 558.189 22.3807C558.639 22.3807 559.058 22.2931 559.446 22.1179C559.834 21.938 560.173 21.6941 560.462 21.3864C560.755 21.0739 560.985 20.7211 561.151 20.3281C561.316 19.9304 561.399 19.5161 561.399 19.0852C561.399 18.517 561.262 17.9844 560.987 17.4872C560.717 16.9901 560.343 16.5876 559.865 16.2798C559.392 15.9721 558.852 15.8182 558.246 15.8182ZM570.84 29.1989C569.77 29.1989 568.858 28.9077 568.105 28.3253C567.353 27.7382 566.777 26.8883 566.38 25.7756C565.982 24.6581 565.783 23.3087 565.783 21.7273C565.783 20.1553 565.982 18.813 566.38 17.7003C566.782 16.5829 567.36 15.7306 568.113 15.1435C568.87 14.5516 569.779 14.2557 570.84 14.2557C571.9 14.2557 572.807 14.5516 573.56 15.1435C574.318 15.7306 574.895 16.5829 575.293 17.7003C575.695 18.813 575.897 20.1553 575.897 21.7273C575.897 23.3087 575.698 24.6581 575.3 25.7756C574.902 26.8883 574.327 27.7382 573.574 28.3253C572.821 28.9077 571.91 29.1989 570.84 29.1989ZM570.84 27.6364C571.9 27.6364 572.724 27.125 573.311 26.1023C573.899 25.0795 574.192 23.6212 574.192 21.7273C574.192 20.4678 574.057 19.3954 573.787 18.5099C573.522 17.6245 573.139 16.9498 572.637 16.4858C572.14 16.0218 571.541 15.7898 570.84 15.7898C569.789 15.7898 568.967 16.3082 568.375 17.3452C567.783 18.3774 567.488 19.8381 567.488 21.7273C567.488 22.9867 567.62 24.0568 567.885 24.9375C568.15 25.8182 568.532 26.4882 569.029 26.9474C569.531 27.4067 570.134 27.6364 570.84 27.6364Z" fill="white"/>
<path d="M596.42 29.1989C595.483 29.1989 594.647 29.0379 593.913 28.7159C593.184 28.3939 592.604 27.9465 592.173 27.3736C591.747 26.7959 591.515 26.1259 591.477 25.3636H593.267C593.305 25.8324 593.466 26.2372 593.75 26.5781C594.034 26.9143 594.406 27.1747 594.865 27.3594C595.324 27.544 595.833 27.6364 596.392 27.6364C597.017 27.6364 597.571 27.5275 598.054 27.3097C598.537 27.0919 598.916 26.7888 599.19 26.4006C599.465 26.0123 599.602 25.5625 599.602 25.0511C599.602 24.5161 599.47 24.045 599.205 23.6378C598.939 23.2259 598.551 22.9039 598.04 22.6719C597.528 22.4399 596.903 22.3239 596.165 22.3239H595V20.7614H596.165C596.742 20.7614 597.249 20.6572 597.685 20.4489C598.125 20.2405 598.468 19.947 598.714 19.5682C598.965 19.1894 599.091 18.7443 599.091 18.233C599.091 17.7405 598.982 17.312 598.764 16.9474C598.546 16.5829 598.239 16.2988 597.841 16.0952C597.448 15.8916 596.984 15.7898 596.449 15.7898C595.947 15.7898 595.473 15.8821 595.028 16.0668C594.588 16.2467 594.228 16.5095 593.949 16.8551C593.67 17.196 593.518 17.608 593.494 18.0909H591.79C591.818 17.3286 592.048 16.661 592.479 16.0881C592.91 15.5104 593.473 15.0606 594.169 14.7386C594.87 14.4167 595.639 14.2557 596.477 14.2557C597.377 14.2557 598.149 14.438 598.793 14.8026C599.437 15.1624 599.931 15.6383 600.277 16.2301C600.623 16.822 600.795 17.4612 600.795 18.1477C600.795 18.9669 600.58 19.6652 600.149 20.2429C599.723 20.8205 599.143 21.2206 598.409 21.4432V21.5568C599.328 21.7083 600.045 22.099 600.561 22.7287C601.077 23.3537 601.335 24.1278 601.335 25.0511C601.335 25.8419 601.12 26.5521 600.689 27.1818C600.263 27.8068 599.68 28.2992 598.942 28.6591C598.203 29.0189 597.363 29.1989 596.42 29.1989ZM608.984 29.1989C607.914 29.1989 607.003 28.9077 606.25 28.3253C605.497 27.7382 604.922 26.8883 604.524 25.7756C604.126 24.6581 603.928 23.3087 603.928 21.7273C603.928 20.1553 604.126 18.813 604.524 17.7003C604.927 16.5829 605.504 15.7306 606.257 15.1435C607.015 14.5516 607.924 14.2557 608.984 14.2557C610.045 14.2557 610.952 14.5516 611.705 15.1435C612.462 15.7306 613.04 16.5829 613.438 17.7003C613.84 18.813 614.041 20.1553 614.041 21.7273C614.041 23.3087 613.842 24.6581 613.445 25.7756C613.047 26.8883 612.472 27.7382 611.719 28.3253C610.966 28.9077 610.054 29.1989 608.984 29.1989ZM608.984 27.6364C610.045 27.6364 610.869 27.125 611.456 26.1023C612.043 25.0795 612.337 23.6212 612.337 21.7273C612.337 20.4678 612.202 19.3954 611.932 18.5099C611.667 17.6245 611.283 16.9498 610.781 16.4858C610.284 16.0218 609.685 15.7898 608.984 15.7898C607.933 15.7898 607.112 16.3082 606.52 17.3452C605.928 18.3774 605.632 19.8381 605.632 21.7273C605.632 22.9867 605.765 24.0568 606.03 24.9375C606.295 25.8182 606.676 26.4882 607.173 26.9474C607.675 27.4067 608.279 27.6364 608.984 27.6364ZM621.484 29.1989C620.414 29.1989 619.503 28.9077 618.75 28.3253C617.997 27.7382 617.422 26.8883 617.024 25.7756C616.626 24.6581 616.428 23.3087 616.428 21.7273C616.428 20.1553 616.626 18.813 617.024 17.7003C617.427 16.5829 618.004 15.7306 618.757 15.1435C619.515 14.5516 620.424 14.2557 621.484 14.2557C622.545 14.2557 623.452 14.5516 624.205 15.1435C624.962 15.7306 625.54 16.5829 625.938 17.7003C626.34 18.813 626.541 20.1553 626.541 21.7273C626.541 23.3087 626.342 24.6581 625.945 25.7756C625.547 26.8883 624.972 27.7382 624.219 28.3253C623.466 28.9077 622.554 29.1989 621.484 29.1989ZM621.484 27.6364C622.545 27.6364 623.369 27.125 623.956 26.1023C624.543 25.0795 624.837 23.6212 624.837 21.7273C624.837 20.4678 624.702 19.3954 624.432 18.5099C624.167 17.6245 623.783 16.9498 623.281 16.4858C622.784 16.0218 622.185 15.7898 621.484 15.7898C620.433 15.7898 619.612 16.3082 619.02 17.3452C618.428 18.3774 618.132 19.8381 618.132 21.7273C618.132 22.9867 618.265 24.0568 618.53 24.9375C618.795 25.8182 619.176 26.4882 619.673 26.9474C620.175 27.4067 620.779 27.6364 621.484 27.6364Z" fill="white"/>
<path d="M646.42 29.1989C645.483 29.1989 644.647 29.0379 643.913 28.7159C643.184 28.3939 642.604 27.9465 642.173 27.3736C641.747 26.7959 641.515 26.1259 641.477 25.3636H643.267C643.305 25.8324 643.466 26.2372 643.75 26.5781C644.034 26.9143 644.406 27.1747 644.865 27.3594C645.324 27.544 645.833 27.6364 646.392 27.6364C647.017 27.6364 647.571 27.5275 648.054 27.3097C648.537 27.0919 648.916 26.7888 649.19 26.4006C649.465 26.0123 649.602 25.5625 649.602 25.0511C649.602 24.5161 649.47 24.045 649.205 23.6378C648.939 23.2259 648.551 22.9039 648.04 22.6719C647.528 22.4399 646.903 22.3239 646.165 22.3239H645V20.7614H646.165C646.742 20.7614 647.249 20.6572 647.685 20.4489C648.125 20.2405 648.468 19.947 648.714 19.5682C648.965 19.1894 649.091 18.7443 649.091 18.233C649.091 17.7405 648.982 17.312 648.764 16.9474C648.546 16.5829 648.239 16.2988 647.841 16.0952C647.448 15.8916 646.984 15.7898 646.449 15.7898C645.947 15.7898 645.473 15.8821 645.028 16.0668C644.588 16.2467 644.228 16.5095 643.949 16.8551C643.67 17.196 643.518 17.608 643.494 18.0909H641.79C641.818 17.3286 642.048 16.661 642.479 16.0881C642.91 15.5104 643.473 15.0606 644.169 14.7386C644.87 14.4167 645.639 14.2557 646.477 14.2557C647.377 14.2557 648.149 14.438 648.793 14.8026C649.437 15.1624 649.931 15.6383 650.277 16.2301C650.623 16.822 650.795 17.4612 650.795 18.1477C650.795 18.9669 650.58 19.6652 650.149 20.2429C649.723 20.8205 649.143 21.2206 648.409 21.4432V21.5568C649.328 21.7083 650.045 22.099 650.561 22.7287C651.077 23.3537 651.335 24.1278 651.335 25.0511C651.335 25.8419 651.12 26.5521 650.689 27.1818C650.263 27.8068 649.68 28.2992 648.942 28.6591C648.203 29.0189 647.363 29.1989 646.42 29.1989ZM659.354 14.4545V29H657.592V16.3011H657.507L653.956 18.6591V16.8693L657.592 14.4545H659.354ZM668.281 29.1989C667.211 29.1989 666.3 28.9077 665.547 28.3253C664.794 27.7382 664.219 26.8883 663.821 25.7756C663.423 24.6581 663.224 23.3087 663.224 21.7273C663.224 20.1553 663.423 18.813 663.821 17.7003C664.223 16.5829 664.801 15.7306 665.554 15.1435C666.312 14.5516 667.221 14.2557 668.281 14.2557C669.342 14.2557 670.249 14.5516 671.001 15.1435C671.759 15.7306 672.337 16.5829 672.734 17.7003C673.137 18.813 673.338 20.1553 673.338 21.7273C673.338 23.3087 673.139 24.6581 672.741 25.7756C672.344 26.8883 671.768 27.7382 671.016 28.3253C670.263 28.9077 669.351 29.1989 668.281 29.1989ZM668.281 27.6364C669.342 27.6364 670.166 27.125 670.753 26.1023C671.34 25.0795 671.634 23.6212 671.634 21.7273C671.634 20.4678 671.499 19.3954 671.229 18.5099C670.964 17.6245 670.58 16.9498 670.078 16.4858C669.581 16.0218 668.982 15.7898 668.281 15.7898C667.23 15.7898 666.409 16.3082 665.817 17.3452C665.225 18.3774 664.929 19.8381 664.929 21.7273C664.929 22.9867 665.062 24.0568 665.327 24.9375C665.592 25.8182 665.973 26.4882 666.47 26.9474C666.972 27.4067 667.576 27.6364 668.281 27.6364Z" fill="white"/>
<path d="M696.42 29.1989C695.483 29.1989 694.647 29.0379 693.913 28.7159C693.184 28.3939 692.604 27.9465 692.173 27.3736C691.747 26.7959 691.515 26.1259 691.477 25.3636H693.267C693.305 25.8324 693.466 26.2372 693.75 26.5781C694.034 26.9143 694.406 27.1747 694.865 27.3594C695.324 27.544 695.833 27.6364 696.392 27.6364C697.017 27.6364 697.571 27.5275 698.054 27.3097C698.537 27.0919 698.916 26.7888 699.19 26.4006C699.465 26.0123 699.602 25.5625 699.602 25.0511C699.602 24.5161 699.47 24.045 699.205 23.6378C698.939 23.2259 698.551 22.9039 698.04 22.6719C697.528 22.4399 696.903 22.3239 696.165 22.3239H695V20.7614H696.165C696.742 20.7614 697.249 20.6572 697.685 20.4489C698.125 20.2405 698.468 19.947 698.714 19.5682C698.965 19.1894 699.091 18.7443 699.091 18.233C699.091 17.7405 698.982 17.312 698.764 16.9474C698.546 16.5829 698.239 16.2988 697.841 16.0952C697.448 15.8916 696.984 15.7898 696.449 15.7898C695.947 15.7898 695.473 15.8821 695.028 16.0668C694.588 16.2467 694.228 16.5095 693.949 16.8551C693.67 17.196 693.518 17.608 693.494 18.0909H691.79C691.818 17.3286 692.048 16.661 692.479 16.0881C692.91 15.5104 693.473 15.0606 694.169 14.7386C694.87 14.4167 695.639 14.2557 696.477 14.2557C697.377 14.2557 698.149 14.438 698.793 14.8026C699.437 15.1624 699.931 15.6383 700.277 16.2301C700.623 16.822 700.795 17.4612 700.795 18.1477C700.795 18.9669 700.58 19.6652 700.149 20.2429C699.723 20.8205 699.143 21.2206 698.409 21.4432V21.5568C699.328 21.7083 700.045 22.099 700.561 22.7287C701.077 23.3537 701.335 24.1278 701.335 25.0511C701.335 25.8419 701.12 26.5521 700.689 27.1818C700.263 27.8068 699.68 28.2992 698.942 28.6591C698.203 29.0189 697.363 29.1989 696.42 29.1989ZM704.24 29V27.7216L709.041 22.4659C709.605 21.8504 710.069 21.3153 710.433 20.8608C710.798 20.4015 711.068 19.9706 711.243 19.5682C711.423 19.161 711.513 18.7348 711.513 18.2898C711.513 17.7784 711.39 17.3357 711.143 16.9616C710.902 16.5876 710.571 16.2988 710.149 16.0952C709.728 15.8916 709.254 15.7898 708.729 15.7898C708.17 15.7898 707.682 15.9058 707.266 16.1378C706.854 16.3651 706.534 16.6847 706.307 17.0966C706.084 17.5085 705.973 17.9915 705.973 18.5455H704.297C704.297 17.6932 704.493 16.9451 704.886 16.3011C705.279 15.6572 705.814 15.1553 706.491 14.7955C707.173 14.4356 707.938 14.2557 708.786 14.2557C709.638 14.2557 710.393 14.4356 711.051 14.7955C711.709 15.1553 712.225 15.6406 712.599 16.2514C712.973 16.8622 713.161 17.5417 713.161 18.2898C713.161 18.8248 713.063 19.348 712.869 19.8594C712.68 20.366 712.348 20.9318 711.875 21.5568C711.406 22.1771 710.755 22.9347 709.922 23.8295L706.655 27.3239V27.4375H713.416V29H704.24ZM721.094 29.1989C720.024 29.1989 719.112 28.9077 718.359 28.3253C717.607 27.7382 717.031 26.8883 716.634 25.7756C716.236 24.6581 716.037 23.3087 716.037 21.7273C716.037 20.1553 716.236 18.813 716.634 17.7003C717.036 16.5829 717.614 15.7306 718.366 15.1435C719.124 14.5516 720.033 14.2557 721.094 14.2557C722.154 14.2557 723.061 14.5516 723.814 15.1435C724.571 15.7306 725.149 16.5829 725.547 17.7003C725.949 18.813 726.151 20.1553 726.151 21.7273C726.151 23.3087 725.952 24.6581 725.554 25.7756C725.156 26.8883 724.581 27.7382 723.828 28.3253C723.075 28.9077 722.164 29.1989 721.094 29.1989ZM721.094 27.6364C722.154 27.6364 722.978 27.125 723.565 26.1023C724.152 25.0795 724.446 23.6212 724.446 21.7273C724.446 20.4678 724.311 19.3954 724.041 18.5099C723.776 17.6245 723.393 16.9498 722.891 16.4858C722.393 16.0218 721.795 15.7898 721.094 15.7898C720.043 15.7898 719.221 16.3082 718.629 17.3452C718.037 18.3774 717.741 19.8381 717.741 21.7273C717.741 22.9867 717.874 24.0568 718.139 24.9375C718.404 25.8182 718.786 26.4882 719.283 26.9474C719.785 27.4067 720.388 27.6364 721.094 27.6364Z" fill="white"/>
<path d="M746.42 29.1989C745.483 29.1989 744.647 29.0379 743.913 28.7159C743.184 28.3939 742.604 27.9465 742.173 27.3736C741.747 26.7959 741.515 26.1259 741.477 25.3636H743.267C743.305 25.8324 743.466 26.2372 743.75 26.5781C744.034 26.9143 744.406 27.1747 744.865 27.3594C745.324 27.544 745.833 27.6364 746.392 27.6364C747.017 27.6364 747.571 27.5275 748.054 27.3097C748.537 27.0919 748.916 26.7888 749.19 26.4006C749.465 26.0123 749.602 25.5625 749.602 25.0511C749.602 24.5161 749.47 24.045 749.205 23.6378C748.939 23.2259 748.551 22.9039 748.04 22.6719C747.528 22.4399 746.903 22.3239 746.165 22.3239H745V20.7614H746.165C746.742 20.7614 747.249 20.6572 747.685 20.4489C748.125 20.2405 748.468 19.947 748.714 19.5682C748.965 19.1894 749.091 18.7443 749.091 18.233C749.091 17.7405 748.982 17.312 748.764 16.9474C748.546 16.5829 748.239 16.2988 747.841 16.0952C747.448 15.8916 746.984 15.7898 746.449 15.7898C745.947 15.7898 745.473 15.8821 745.028 16.0668C744.588 16.2467 744.228 16.5095 743.949 16.8551C743.67 17.196 743.518 17.608 743.494 18.0909H741.79C741.818 17.3286 742.048 16.661 742.479 16.0881C742.91 15.5104 743.473 15.0606 744.169 14.7386C744.87 14.4167 745.639 14.2557 746.477 14.2557C747.377 14.2557 748.149 14.438 748.793 14.8026C749.437 15.1624 749.931 15.6383 750.277 16.2301C750.623 16.822 750.795 17.4612 750.795 18.1477C750.795 18.9669 750.58 19.6652 750.149 20.2429C749.723 20.8205 749.143 21.2206 748.409 21.4432V21.5568C749.328 21.7083 750.045 22.099 750.561 22.7287C751.077 23.3537 751.335 24.1278 751.335 25.0511C751.335 25.8419 751.12 26.5521 750.689 27.1818C750.263 27.8068 749.68 28.2992 748.942 28.6591C748.203 29.0189 747.363 29.1989 746.42 29.1989ZM759.155 29.1989C758.217 29.1989 757.382 29.0379 756.648 28.7159C755.919 28.3939 755.339 27.9465 754.908 27.3736C754.482 26.7959 754.25 26.1259 754.212 25.3636H756.001C756.039 25.8324 756.2 26.2372 756.484 26.5781C756.768 26.9143 757.14 27.1747 757.599 27.3594C758.059 27.544 758.568 27.6364 759.126 27.6364C759.751 27.6364 760.305 27.5275 760.788 27.3097C761.271 27.0919 761.65 26.7888 761.925 26.4006C762.199 26.0123 762.337 25.5625 762.337 25.0511C762.337 24.5161 762.204 24.045 761.939 23.6378C761.674 23.2259 761.286 22.9039 760.774 22.6719C760.263 22.4399 759.638 22.3239 758.899 22.3239H757.734V20.7614H758.899C759.477 20.7614 759.983 20.6572 760.419 20.4489C760.859 20.2405 761.203 19.947 761.449 19.5682C761.7 19.1894 761.825 18.7443 761.825 18.233C761.825 17.7405 761.716 17.312 761.499 16.9474C761.281 16.5829 760.973 16.2988 760.575 16.0952C760.182 15.8916 759.718 15.7898 759.183 15.7898C758.681 15.7898 758.208 15.8821 757.763 16.0668C757.322 16.2467 756.963 16.5095 756.683 16.8551C756.404 17.196 756.252 17.608 756.229 18.0909H754.524C754.553 17.3286 754.782 16.661 755.213 16.0881C755.644 15.5104 756.207 15.0606 756.903 14.7386C757.604 14.4167 758.374 14.2557 759.212 14.2557C760.111 14.2557 760.883 14.438 761.527 14.8026C762.171 15.1624 762.666 15.6383 763.011 16.2301C763.357 16.822 763.53 17.4612 763.53 18.1477C763.53 18.9669 763.314 19.6652 762.884 20.2429C762.457 20.8205 761.877 21.2206 761.143 21.4432V21.5568C762.062 21.7083 762.779 22.099 763.295 22.7287C763.812 23.3537 764.07 24.1278 764.07 25.0511C764.07 25.8419 763.854 26.5521 763.423 27.1818C762.997 27.8068 762.415 28.2992 761.676 28.6591C760.938 29.0189 760.097 29.1989 759.155 29.1989ZM771.719 29.1989C770.649 29.1989 769.737 28.9077 768.984 28.3253C768.232 27.7382 767.656 26.8883 767.259 25.7756C766.861 24.6581 766.662 23.3087 766.662 21.7273C766.662 20.1553 766.861 18.813 767.259 17.7003C767.661 16.5829 768.239 15.7306 768.991 15.1435C769.749 14.5516 770.658 14.2557 771.719 14.2557C772.779 14.2557 773.686 14.5516 774.439 15.1435C775.196 15.7306 775.774 16.5829 776.172 17.7003C776.574 18.813 776.776 20.1553 776.776 21.7273C776.776 23.3087 776.577 24.6581 776.179 25.7756C775.781 26.8883 775.206 27.7382 774.453 28.3253C773.7 28.9077 772.789 29.1989 771.719 29.1989ZM771.719 27.6364C772.779 27.6364 773.603 27.125 774.19 26.1023C774.777 25.0795 775.071 23.6212 775.071 21.7273C775.071 20.4678 774.936 19.3954 774.666 18.5099C774.401 17.6245 774.018 16.9498 773.516 16.4858C773.018 16.0218 772.42 15.7898 771.719 15.7898C770.668 15.7898 769.846 16.3082 769.254 17.3452C768.662 18.3774 768.366 19.8381 768.366 21.7273C768.366 22.9867 768.499 24.0568 768.764 24.9375C769.029 25.8182 769.411 26.4882 769.908 26.9474C770.41 27.4067 771.013 27.6364 771.719 27.6364Z" fill="white"/>
<path d="M796.42 29.1989C795.483 29.1989 794.647 29.0379 793.913 28.7159C793.184 28.3939 792.604 27.9465 792.173 27.3736C791.747 26.7959 791.515 26.1259 791.477 25.3636H793.267C793.305 25.8324 793.466 26.2372 793.75 26.5781C794.034 26.9143 794.406 27.1747 794.865 27.3594C795.324 27.544 795.833 27.6364 796.392 27.6364C797.017 27.6364 797.571 27.5275 798.054 27.3097C798.537 27.0919 798.916 26.7888 799.19 26.4006C799.465 26.0123 799.602 25.5625 799.602 25.0511C799.602 24.5161 799.47 24.045 799.205 23.6378C798.939 23.2259 798.551 22.9039 798.04 22.6719C797.528 22.4399 796.903 22.3239 796.165 22.3239H795V20.7614H796.165C796.742 20.7614 797.249 20.6572 797.685 20.4489C798.125 20.2405 798.468 19.947 798.714 19.5682C798.965 19.1894 799.091 18.7443 799.091 18.233C799.091 17.7405 798.982 17.312 798.764 16.9474C798.546 16.5829 798.239 16.2988 797.841 16.0952C797.448 15.8916 796.984 15.7898 796.449 15.7898C795.947 15.7898 795.473 15.8821 795.028 16.0668C794.588 16.2467 794.228 16.5095 793.949 16.8551C793.67 17.196 793.518 17.608 793.494 18.0909H791.79C791.818 17.3286 792.048 16.661 792.479 16.0881C792.91 15.5104 793.473 15.0606 794.169 14.7386C794.87 14.4167 795.639 14.2557 796.477 14.2557C797.377 14.2557 798.149 14.438 798.793 14.8026C799.437 15.1624 799.931 15.6383 800.277 16.2301C800.623 16.822 800.795 17.4612 800.795 18.1477C800.795 18.9669 800.58 19.6652 800.149 20.2429C799.723 20.8205 799.143 21.2206 798.409 21.4432V21.5568C799.328 21.7083 800.045 22.099 800.561 22.7287C801.077 23.3537 801.335 24.1278 801.335 25.0511C801.335 25.8419 801.12 26.5521 800.689 27.1818C800.263 27.8068 799.68 28.2992 798.942 28.6591C798.203 29.0189 797.363 29.1989 796.42 29.1989ZM803.899 26.017V24.5682L810.291 14.4545H811.342V16.6989H810.632L805.803 24.3409V24.4545H814.411V26.017H803.899ZM810.746 29V25.5767V24.902V14.4545H812.422V29H810.746ZM821.816 29.1989C820.746 29.1989 819.835 28.9077 819.082 28.3253C818.329 27.7382 817.754 26.8883 817.356 25.7756C816.958 24.6581 816.76 23.3087 816.76 21.7273C816.76 20.1553 816.958 18.813 817.356 17.7003C817.759 16.5829 818.336 15.7306 819.089 15.1435C819.847 14.5516 820.756 14.2557 821.816 14.2557C822.877 14.2557 823.784 14.5516 824.537 15.1435C825.294 15.7306 825.872 16.5829 826.27 17.7003C826.672 18.813 826.873 20.1553 826.873 21.7273C826.873 23.3087 826.674 24.6581 826.277 25.7756C825.879 26.8883 825.304 27.7382 824.551 28.3253C823.798 28.9077 822.886 29.1989 821.816 29.1989ZM821.816 27.6364C822.877 27.6364 823.701 27.125 824.288 26.1023C824.875 25.0795 825.169 23.6212 825.169 21.7273C825.169 20.4678 825.034 19.3954 824.764 18.5099C824.499 17.6245 824.115 16.9498 823.613 16.4858C823.116 16.0218 822.517 15.7898 821.816 15.7898C820.765 15.7898 819.944 16.3082 819.352 17.3452C818.76 18.3774 818.464 19.8381 818.464 21.7273C818.464 22.9867 818.597 24.0568 818.862 24.9375C819.127 25.8182 819.508 26.4882 820.005 26.9474C820.507 27.4067 821.111 27.6364 821.816 27.6364Z" fill="white"/>
<path d="M1056.42 29.1989C1055.48 29.1989 1054.65 29.0379 1053.91 28.7159C1053.18 28.3939 1052.6 27.9465 1052.17 27.3736C1051.75 26.7959 1051.52 26.1259 1051.48 25.3636H1053.27C1053.3 25.8324 1053.47 26.2372 1053.75 26.5781C1054.03 26.9143 1054.41 27.1747 1054.87 27.3594C1055.32 27.544 1055.83 27.6364 1056.39 27.6364C1057.02 27.6364 1057.57 27.5275 1058.05 27.3097C1058.54 27.0919 1058.92 26.7888 1059.19 26.4006C1059.46 26.0123 1059.6 25.5625 1059.6 25.0511C1059.6 24.5161 1059.47 24.045 1059.2 23.6378C1058.94 23.2259 1058.55 22.9039 1058.04 22.6719C1057.53 22.4399 1056.9 22.3239 1056.16 22.3239H1055V20.7614H1056.16C1056.74 20.7614 1057.25 20.6572 1057.68 20.4489C1058.13 20.2405 1058.47 19.947 1058.71 19.5682C1058.97 19.1894 1059.09 18.7443 1059.09 18.233C1059.09 17.7405 1058.98 17.312 1058.76 16.9474C1058.55 16.5829 1058.24 16.2988 1057.84 16.0952C1057.45 15.8916 1056.98 15.7898 1056.45 15.7898C1055.95 15.7898 1055.47 15.8821 1055.03 16.0668C1054.59 16.2467 1054.23 16.5095 1053.95 16.8551C1053.67 17.196 1053.52 17.608 1053.49 18.0909H1051.79C1051.82 17.3286 1052.05 16.661 1052.48 16.0881C1052.91 15.5104 1053.47 15.0606 1054.17 14.7386C1054.87 14.4167 1055.64 14.2557 1056.48 14.2557C1057.38 14.2557 1058.15 14.438 1058.79 14.8026C1059.44 15.1624 1059.93 15.6383 1060.28 16.2301C1060.62 16.822 1060.8 17.4612 1060.8 18.1477C1060.8 18.9669 1060.58 19.6652 1060.15 20.2429C1059.72 20.8205 1059.14 21.2206 1058.41 21.4432V21.5568C1059.33 21.7083 1060.04 22.099 1060.56 22.7287C1061.08 23.3537 1061.34 24.1278 1061.34 25.0511C1061.34 25.8419 1061.12 26.5521 1060.69 27.1818C1060.26 27.8068 1059.68 28.2992 1058.94 28.6591C1058.2 29.0189 1057.36 29.1989 1056.42 29.1989ZM1068.98 29.1989C1067.91 29.1989 1067 28.9077 1066.25 28.3253C1065.5 27.7382 1064.92 26.8883 1064.52 25.7756C1064.13 24.6581 1063.93 23.3087 1063.93 21.7273C1063.93 20.1553 1064.13 18.813 1064.52 17.7003C1064.93 16.5829 1065.5 15.7306 1066.26 15.1435C1067.01 14.5516 1067.92 14.2557 1068.98 14.2557C1070.04 14.2557 1070.95 14.5516 1071.7 15.1435C1072.46 15.7306 1073.04 16.5829 1073.44 17.7003C1073.84 18.813 1074.04 20.1553 1074.04 21.7273C1074.04 23.3087 1073.84 24.6581 1073.44 25.7756C1073.05 26.8883 1072.47 27.7382 1071.72 28.3253C1070.97 28.9077 1070.05 29.1989 1068.98 29.1989ZM1068.98 27.6364C1070.04 27.6364 1070.87 27.125 1071.46 26.1023C1072.04 25.0795 1072.34 23.6212 1072.34 21.7273C1072.34 20.4678 1072.2 19.3954 1071.93 18.5099C1071.67 17.6245 1071.28 16.9498 1070.78 16.4858C1070.28 16.0218 1069.69 15.7898 1068.98 15.7898C1067.93 15.7898 1067.11 16.3082 1066.52 17.3452C1065.93 18.3774 1065.63 19.8381 1065.63 21.7273C1065.63 22.9867 1065.76 24.0568 1066.03 24.9375C1066.29 25.8182 1066.68 26.4882 1067.17 26.9474C1067.68 27.4067 1068.28 27.6364 1068.98 27.6364Z" fill="white"/>
<path d="M1247.96 29L1254.47 16.1307V16.017H1246.97V14.4545H1256.28V16.1023L1249.81 29H1247.96ZM1263.36 29.1989C1262.29 29.1989 1261.38 28.9077 1260.63 28.3253C1259.88 27.7382 1259.3 26.8883 1258.9 25.7756C1258.51 24.6581 1258.31 23.3087 1258.31 21.7273C1258.31 20.1553 1258.51 18.813 1258.9 17.7003C1259.31 16.5829 1259.88 15.7306 1260.64 15.1435C1261.39 14.5516 1262.3 14.2557 1263.36 14.2557C1264.42 14.2557 1265.33 14.5516 1266.08 15.1435C1266.84 15.7306 1267.42 16.5829 1267.82 17.7003C1268.22 18.813 1268.42 20.1553 1268.42 21.7273C1268.42 23.3087 1268.22 24.6581 1267.82 25.7756C1267.43 26.8883 1266.85 27.7382 1266.1 28.3253C1265.34 28.9077 1264.43 29.1989 1263.36 29.1989ZM1263.36 27.6364C1264.42 27.6364 1265.25 27.125 1265.83 26.1023C1266.42 25.0795 1266.72 23.6212 1266.72 21.7273C1266.72 20.4678 1266.58 19.3954 1266.31 18.5099C1266.05 17.6245 1265.66 16.9498 1265.16 16.4858C1264.66 16.0218 1264.06 15.7898 1263.36 15.7898C1262.31 15.7898 1261.49 16.3082 1260.9 17.3452C1260.31 18.3774 1260.01 19.8381 1260.01 21.7273C1260.01 22.9867 1260.14 24.0568 1260.41 24.9375C1260.67 25.8182 1261.06 26.4882 1261.55 26.9474C1262.05 27.4067 1262.66 27.6364 1263.36 27.6364Z" fill="white"/>
<path d="M1303.16 29.1989C1302.19 29.1989 1301.33 29.026 1300.58 28.6804C1299.84 28.33 1299.26 27.8494 1298.84 27.2386C1298.42 26.6231 1298.22 25.9223 1298.22 25.1364C1298.22 24.5208 1298.34 23.9527 1298.58 23.4318C1298.83 22.9062 1299.17 22.4683 1299.59 22.1179C1300.02 21.7628 1300.5 21.5379 1301.03 21.4432V21.358C1300.34 21.178 1299.78 20.7874 1299.37 20.1861C1298.96 19.58 1298.76 18.8911 1298.76 18.1193C1298.76 17.3807 1298.94 16.7202 1299.32 16.1378C1299.7 15.5554 1300.22 15.0961 1300.88 14.7599C1301.55 14.4238 1302.31 14.2557 1303.16 14.2557C1304.01 14.2557 1304.76 14.4238 1305.42 14.7599C1306.09 15.0961 1306.61 15.5554 1306.99 16.1378C1307.37 16.7202 1307.56 17.3807 1307.57 18.1193C1307.56 18.8911 1307.35 19.58 1306.94 20.1861C1306.52 20.7874 1305.98 21.178 1305.3 21.358V21.4432C1305.82 21.5379 1306.29 21.7628 1306.72 22.1179C1307.14 22.4683 1307.47 22.9062 1307.72 23.4318C1307.98 23.9527 1308.1 24.5208 1308.11 25.1364C1308.1 25.9223 1307.89 26.6231 1307.47 27.2386C1307.05 27.8494 1306.47 28.33 1305.73 28.6804C1304.99 29.026 1304.14 29.1989 1303.16 29.1989ZM1303.16 27.6364C1303.82 27.6364 1304.39 27.5298 1304.87 27.3168C1305.35 27.1037 1305.72 26.803 1305.98 26.4148C1306.24 26.0265 1306.37 25.572 1306.38 25.0511C1306.37 24.5019 1306.23 24.0166 1305.95 23.5952C1305.67 23.1738 1305.29 22.8423 1304.81 22.6009C1304.33 22.3594 1303.78 22.2386 1303.16 22.2386C1302.54 22.2386 1301.99 22.3594 1301.5 22.6009C1301.02 22.8423 1300.64 23.1738 1300.36 23.5952C1300.08 24.0166 1299.95 24.5019 1299.95 25.0511C1299.95 25.572 1300.08 26.0265 1300.33 26.4148C1300.59 26.803 1300.96 27.1037 1301.45 27.3168C1301.93 27.5298 1302.5 27.6364 1303.16 27.6364ZM1303.16 20.733C1303.69 20.733 1304.15 20.6288 1304.55 20.4205C1304.96 20.2121 1305.28 19.9209 1305.51 19.5469C1305.74 19.1728 1305.86 18.7348 1305.86 18.233C1305.86 17.7405 1305.74 17.312 1305.52 16.9474C1305.29 16.5781 1304.97 16.294 1304.57 16.0952C1304.17 15.8916 1303.7 15.7898 1303.16 15.7898C1302.62 15.7898 1302.14 15.8916 1301.74 16.0952C1301.33 16.294 1301.02 16.5781 1300.79 16.9474C1300.57 17.312 1300.46 17.7405 1300.47 18.233C1300.46 18.7348 1300.57 19.1728 1300.8 19.5469C1301.03 19.9209 1301.35 20.2121 1301.76 20.4205C1302.17 20.6288 1302.63 20.733 1303.16 20.733ZM1315.57 29.1989C1314.5 29.1989 1313.59 28.9077 1312.84 28.3253C1312.09 27.7382 1311.51 26.8883 1311.11 25.7756C1310.72 24.6581 1310.52 23.3087 1310.52 21.7273C1310.52 20.1553 1310.72 18.813 1311.11 17.7003C1311.52 16.5829 1312.09 15.7306 1312.85 15.1435C1313.6 14.5516 1314.51 14.2557 1315.57 14.2557C1316.63 14.2557 1317.54 14.5516 1318.29 15.1435C1319.05 15.7306 1319.63 16.5829 1320.03 17.7003C1320.43 18.813 1320.63 20.1553 1320.63 21.7273C1320.63 23.3087 1320.43 24.6581 1320.03 25.7756C1319.64 26.8883 1319.06 27.7382 1318.31 28.3253C1317.56 28.9077 1316.64 29.1989 1315.57 29.1989ZM1315.57 27.6364C1316.63 27.6364 1317.46 27.125 1318.05 26.1023C1318.63 25.0795 1318.93 23.6212 1318.93 21.7273C1318.93 20.4678 1318.79 19.3954 1318.52 18.5099C1318.26 17.6245 1317.87 16.9498 1317.37 16.4858C1316.87 16.0218 1316.27 15.7898 1315.57 15.7898C1314.52 15.7898 1313.7 16.3082 1313.11 17.3452C1312.52 18.3774 1312.22 19.8381 1312.22 21.7273C1312.22 22.9867 1312.35 24.0568 1312.62 24.9375C1312.88 25.8182 1313.27 26.4882 1313.76 26.9474C1314.27 27.4067 1314.87 27.6364 1315.57 27.6364Z" fill="white"/>
<path d="M1549.62 14.4545V29H1547.86V16.3011H1547.77L1544.22 18.6591V16.8693L1547.86 14.4545H1549.62ZM1558.72 29.1989C1557.78 29.1989 1556.94 29.0379 1556.21 28.7159C1555.48 28.3939 1554.9 27.9465 1554.47 27.3736C1554.04 26.7959 1553.81 26.1259 1553.77 25.3636H1555.56C1555.6 25.8324 1555.76 26.2372 1556.05 26.5781C1556.33 26.9143 1556.7 27.1747 1557.16 27.3594C1557.62 27.544 1558.13 27.6364 1558.69 27.6364C1559.31 27.6364 1559.87 27.5275 1560.35 27.3097C1560.83 27.0919 1561.21 26.7888 1561.49 26.4006C1561.76 26.0123 1561.9 25.5625 1561.9 25.0511C1561.9 24.5161 1561.77 24.045 1561.5 23.6378C1561.24 23.2259 1560.85 22.9039 1560.34 22.6719C1559.83 22.4399 1559.2 22.3239 1558.46 22.3239H1557.3V20.7614H1558.46C1559.04 20.7614 1559.55 20.6572 1559.98 20.4489C1560.42 20.2405 1560.77 19.947 1561.01 19.5682C1561.26 19.1894 1561.39 18.7443 1561.39 18.233C1561.39 17.7405 1561.28 17.312 1561.06 16.9474C1560.84 16.5829 1560.54 16.2988 1560.14 16.0952C1559.74 15.8916 1559.28 15.7898 1558.75 15.7898C1558.24 15.7898 1557.77 15.8821 1557.33 16.0668C1556.88 16.2467 1556.53 16.5095 1556.25 16.8551C1555.97 17.196 1555.81 17.608 1555.79 18.0909H1554.09C1554.12 17.3286 1554.34 16.661 1554.78 16.0881C1555.21 15.5104 1555.77 15.0606 1556.47 14.7386C1557.17 14.4167 1557.94 14.2557 1558.77 14.2557C1559.67 14.2557 1560.45 14.438 1561.09 14.8026C1561.73 15.1624 1562.23 15.6383 1562.57 16.2301C1562.92 16.822 1563.09 17.4612 1563.09 18.1477C1563.09 18.9669 1562.88 19.6652 1562.45 20.2429C1562.02 20.8205 1561.44 21.2206 1560.71 21.4432V21.5568C1561.62 21.7083 1562.34 22.099 1562.86 22.7287C1563.37 23.3537 1563.63 24.1278 1563.63 25.0511C1563.63 25.8419 1563.42 26.5521 1562.99 27.1818C1562.56 27.8068 1561.98 28.2992 1561.24 28.6591C1560.5 29.0189 1559.66 29.1989 1558.72 29.1989ZM1571.28 29.1989C1570.21 29.1989 1569.3 28.9077 1568.55 28.3253C1567.79 27.7382 1567.22 26.8883 1566.82 25.7756C1566.42 24.6581 1566.22 23.3087 1566.22 21.7273C1566.22 20.1553 1566.42 18.813 1566.82 17.7003C1567.22 16.5829 1567.8 15.7306 1568.55 15.1435C1569.31 14.5516 1570.22 14.2557 1571.28 14.2557C1572.34 14.2557 1573.25 14.5516 1574 15.1435C1574.76 15.7306 1575.34 16.5829 1575.73 17.7003C1576.14 18.813 1576.34 20.1553 1576.34 21.7273C1576.34 23.3087 1576.14 24.6581 1575.74 25.7756C1575.34 26.8883 1574.77 27.7382 1574.02 28.3253C1573.26 28.9077 1572.35 29.1989 1571.28 29.1989ZM1571.28 27.6364C1572.34 27.6364 1573.17 27.125 1573.75 26.1023C1574.34 25.0795 1574.63 23.6212 1574.63 21.7273C1574.63 20.4678 1574.5 19.3954 1574.23 18.5099C1573.96 17.6245 1573.58 16.9498 1573.08 16.4858C1572.58 16.0218 1571.98 15.7898 1571.28 15.7898C1570.23 15.7898 1569.41 16.3082 1568.82 17.3452C1568.22 18.3774 1567.93 19.8381 1567.93 21.7273C1567.93 22.9867 1568.06 24.0568 1568.33 24.9375C1568.59 25.8182 1568.97 26.4882 1569.47 26.9474C1569.97 27.4067 1570.58 27.6364 1571.28 27.6364Z" fill="white"/>
<path d="M1749.62 14.4545V29H1747.86V16.3011H1747.77L1744.22 18.6591V16.8693L1747.86 14.4545H1749.62ZM1754.26 29L1760.76 16.1307V16.017H1753.26V14.4545H1762.58V16.1023L1756.1 29H1754.26ZM1769.66 29.1989C1768.59 29.1989 1767.68 28.9077 1766.93 28.3253C1766.17 27.7382 1765.6 26.8883 1765.2 25.7756C1764.8 24.6581 1764.6 23.3087 1764.6 21.7273C1764.6 20.1553 1764.8 18.813 1765.2 17.7003C1765.6 16.5829 1766.18 15.7306 1766.93 15.1435C1767.69 14.5516 1768.6 14.2557 1769.66 14.2557C1770.72 14.2557 1771.63 14.5516 1772.38 15.1435C1773.14 15.7306 1773.72 16.5829 1774.11 17.7003C1774.52 18.813 1774.72 20.1553 1774.72 21.7273C1774.72 23.3087 1774.52 24.6581 1774.12 25.7756C1773.72 26.8883 1773.15 27.7382 1772.39 28.3253C1771.64 28.9077 1770.73 29.1989 1769.66 29.1989ZM1769.66 27.6364C1770.72 27.6364 1771.54 27.125 1772.13 26.1023C1772.72 25.0795 1773.01 23.6212 1773.01 21.7273C1773.01 20.4678 1772.88 19.3954 1772.61 18.5099C1772.34 17.6245 1771.96 16.9498 1771.46 16.4858C1770.96 16.0218 1770.36 15.7898 1769.66 15.7898C1768.61 15.7898 1767.79 16.3082 1767.2 17.3452C1766.6 18.3774 1766.31 19.8381 1766.31 21.7273C1766.31 22.9867 1766.44 24.0568 1766.71 24.9375C1766.97 25.8182 1767.35 26.4882 1767.85 26.9474C1768.35 27.4067 1768.95 27.6364 1769.66 27.6364Z" fill="white"/>
<path d="M1699.62 14.4545V29H1697.86V16.3011H1697.77L1694.22 18.6591V16.8693L1697.86 14.4545H1699.62ZM1708.63 29.1989C1708.04 29.1894 1707.44 29.0758 1706.84 28.858C1706.25 28.6402 1705.7 28.2732 1705.21 27.7571C1704.72 27.2363 1704.32 26.5331 1704.02 25.6477C1703.72 24.7576 1703.58 23.6402 1703.58 22.2955C1703.58 21.0076 1703.7 19.8665 1703.94 18.8722C1704.18 17.8731 1704.53 17.0327 1704.99 16.3509C1705.45 15.6643 1706 15.1435 1706.65 14.7884C1707.3 14.4332 1708.04 14.2557 1708.86 14.2557C1709.67 14.2557 1710.4 14.419 1711.03 14.7457C1711.67 15.0677 1712.19 15.5175 1712.6 16.0952C1713 16.6728 1713.26 17.3381 1713.38 18.0909H1711.64C1711.48 17.4375 1711.17 16.8954 1710.71 16.4645C1710.24 16.0336 1709.63 15.8182 1708.86 15.8182C1707.73 15.8182 1706.84 16.3082 1706.2 17.2884C1705.55 18.2685 1705.23 19.6439 1705.22 21.4148H1705.34C1705.6 21.0123 1705.92 20.669 1706.28 20.3849C1706.65 20.0961 1707.06 19.8736 1707.5 19.7173C1707.95 19.5611 1708.42 19.483 1708.92 19.483C1709.75 19.483 1710.51 19.6913 1711.2 20.108C1711.89 20.5199 1712.45 21.0904 1712.87 21.8196C1713.28 22.544 1713.49 23.375 1713.49 24.3125C1713.49 25.2121 1713.29 26.036 1712.89 26.7841C1712.48 27.5275 1711.92 28.1193 1711.19 28.5597C1710.46 28.9953 1709.61 29.2083 1708.63 29.1989ZM1708.63 27.6364C1709.23 27.6364 1709.76 27.4872 1710.24 27.1889C1710.72 26.8906 1711.09 26.4905 1711.37 25.9886C1711.65 25.4867 1711.79 24.928 1711.79 24.3125C1711.79 23.7112 1711.65 23.1643 1711.38 22.6719C1711.12 22.1747 1710.75 21.7794 1710.28 21.4858C1709.82 21.1922 1709.29 21.0455 1708.69 21.0455C1708.24 21.0455 1707.82 21.1354 1707.43 21.3153C1707.04 21.4905 1706.7 21.732 1706.41 22.0398C1706.12 22.3475 1705.89 22.7003 1705.73 23.098C1705.56 23.491 1705.48 23.9053 1705.48 24.3409C1705.48 24.9186 1705.61 25.4583 1705.88 25.9602C1706.16 26.4621 1706.53 26.867 1707.01 27.1747C1707.48 27.4825 1708.03 27.6364 1708.63 27.6364ZM1721.03 29.1989C1719.96 29.1989 1719.05 28.9077 1718.29 28.3253C1717.54 27.7382 1716.96 26.8883 1716.57 25.7756C1716.17 24.6581 1715.97 23.3087 1715.97 21.7273C1715.97 20.1553 1716.17 18.813 1716.57 17.7003C1716.97 16.5829 1717.55 15.7306 1718.3 15.1435C1719.06 14.5516 1719.97 14.2557 1721.03 14.2557C1722.09 14.2557 1722.99 14.5516 1723.75 15.1435C1724.51 15.7306 1725.08 16.5829 1725.48 17.7003C1725.88 18.813 1726.08 20.1553 1726.08 21.7273C1726.08 23.3087 1725.89 24.6581 1725.49 25.7756C1725.09 26.8883 1724.51 27.7382 1723.76 28.3253C1723.01 28.9077 1722.1 29.1989 1721.03 29.1989ZM1721.03 27.6364C1722.09 27.6364 1722.91 27.125 1723.5 26.1023C1724.09 25.0795 1724.38 23.6212 1724.38 21.7273C1724.38 20.4678 1724.24 19.3954 1723.97 18.5099C1723.71 17.6245 1723.33 16.9498 1722.82 16.4858C1722.33 16.0218 1721.73 15.7898 1721.03 15.7898C1719.98 15.7898 1719.15 16.3082 1718.56 17.3452C1717.97 18.3774 1717.68 19.8381 1717.68 21.7273C1717.68 22.9867 1717.81 24.0568 1718.07 24.9375C1718.34 25.8182 1718.72 26.4882 1719.22 26.9474C1719.72 27.4067 1720.32 27.6364 1721.03 27.6364Z" fill="white"/>
<path d="M1649.62 14.4545V29H1647.86V16.3011H1647.77L1644.22 18.6591V16.8693L1647.86 14.4545H1649.62ZM1658.35 29.1989C1657.51 29.1989 1656.76 29.0331 1656.1 28.7017C1655.43 28.3703 1654.89 27.9157 1654.49 27.3381C1654.09 26.7604 1653.87 26.1023 1653.83 25.3636H1655.54C1655.6 26.0218 1655.9 26.5663 1656.43 26.9972C1656.97 27.4233 1657.6 27.6364 1658.35 27.6364C1658.94 27.6364 1659.47 27.4967 1659.94 27.2173C1660.41 26.938 1660.77 26.5545 1661.04 26.0668C1661.31 25.5743 1661.44 25.018 1661.44 24.3977C1661.44 23.7633 1661.3 23.1974 1661.03 22.7003C1660.75 22.1984 1660.37 21.803 1659.89 21.5142C1659.41 21.2254 1658.85 21.0786 1658.23 21.0739C1657.79 21.0691 1657.33 21.1378 1656.86 21.2798C1656.39 21.4171 1656.01 21.5947 1655.71 21.8125L1654.06 21.6136L1654.94 14.4545H1662.5V16.017H1656.42L1655.9 20.3068H1655.99C1656.29 20.0701 1656.66 19.8736 1657.11 19.7173C1657.56 19.5611 1658.03 19.483 1658.52 19.483C1659.41 19.483 1660.2 19.696 1660.9 20.1222C1661.6 20.5436 1662.15 21.1212 1662.55 21.8551C1662.95 22.589 1663.15 23.4271 1663.15 24.3693C1663.15 25.2973 1662.94 26.1259 1662.52 26.8551C1662.11 27.5795 1661.54 28.1525 1660.82 28.5739C1660.1 28.9905 1659.27 29.1989 1658.35 29.1989ZM1670.71 29.1989C1669.64 29.1989 1668.73 28.9077 1667.98 28.3253C1667.23 27.7382 1666.65 26.8883 1666.25 25.7756C1665.86 24.6581 1665.66 23.3087 1665.66 21.7273C1665.66 20.1553 1665.86 18.813 1666.25 17.7003C1666.66 16.5829 1667.23 15.7306 1667.99 15.1435C1668.75 14.5516 1669.65 14.2557 1670.71 14.2557C1671.78 14.2557 1672.68 14.5516 1673.44 15.1435C1674.19 15.7306 1674.77 16.5829 1675.17 17.7003C1675.57 18.813 1675.77 20.1553 1675.77 21.7273C1675.77 23.3087 1675.57 24.6581 1675.18 25.7756C1674.78 26.8883 1674.2 27.7382 1673.45 28.3253C1672.7 28.9077 1671.78 29.1989 1670.71 29.1989ZM1670.71 27.6364C1671.78 27.6364 1672.6 27.125 1673.19 26.1023C1673.77 25.0795 1674.07 23.6212 1674.07 21.7273C1674.07 20.4678 1673.93 19.3954 1673.66 18.5099C1673.4 17.6245 1673.01 16.9498 1672.51 16.4858C1672.01 16.0218 1671.42 15.7898 1670.71 15.7898C1669.66 15.7898 1668.84 16.3082 1668.25 17.3452C1667.66 18.3774 1667.36 19.8381 1667.36 21.7273C1667.36 22.9867 1667.5 24.0568 1667.76 24.9375C1668.03 25.8182 1668.41 26.4882 1668.9 26.9474C1669.41 27.4067 1670.01 27.6364 1670.71 27.6364Z" fill="white"/>
<path d="M1599.62 14.4545V29H1597.86V16.3011H1597.77L1594.22 18.6591V16.8693L1597.86 14.4545H1599.62ZM1603.46 26.017V24.5682L1609.85 14.4545H1610.9V16.6989H1610.19L1605.37 24.3409V24.4545H1613.97V26.017H1603.46ZM1610.31 29V25.5767V24.902V14.4545H1611.98V29H1610.31ZM1621.38 29.1989C1620.31 29.1989 1619.4 28.9077 1618.64 28.3253C1617.89 27.7382 1617.32 26.8883 1616.92 25.7756C1616.52 24.6581 1616.32 23.3087 1616.32 21.7273C1616.32 20.1553 1616.52 18.813 1616.92 17.7003C1617.32 16.5829 1617.9 15.7306 1618.65 15.1435C1619.41 14.5516 1620.32 14.2557 1621.38 14.2557C1622.44 14.2557 1623.35 14.5516 1624.1 15.1435C1624.86 15.7306 1625.43 16.5829 1625.83 17.7003C1626.23 18.813 1626.44 20.1553 1626.44 21.7273C1626.44 23.3087 1626.24 24.6581 1625.84 25.7756C1625.44 26.8883 1624.87 27.7382 1624.11 28.3253C1623.36 28.9077 1622.45 29.1989 1621.38 29.1989ZM1621.38 27.6364C1622.44 27.6364 1623.26 27.125 1623.85 26.1023C1624.44 25.0795 1624.73 23.6212 1624.73 21.7273C1624.73 20.4678 1624.6 19.3954 1624.33 18.5099C1624.06 17.6245 1623.68 16.9498 1623.18 16.4858C1622.68 16.0218 1622.08 15.7898 1621.38 15.7898C1620.33 15.7898 1619.51 16.3082 1618.91 17.3452C1618.32 18.3774 1618.03 19.8381 1618.03 21.7273C1618.03 22.9867 1618.16 24.0568 1618.42 24.9375C1618.69 25.8182 1619.07 26.4882 1619.57 26.9474C1620.07 27.4067 1620.67 27.6364 1621.38 27.6364Z" fill="white"/>
<path d="M1500.62 14.4545V29H1498.86V16.3011H1498.77L1495.22 18.6591V16.8693L1498.86 14.4545H1500.62ZM1504.8 29V27.7216L1509.6 22.4659C1510.17 21.8504 1510.63 21.3153 1511 20.8608C1511.36 20.4015 1511.63 19.9706 1511.81 19.5682C1511.99 19.161 1512.08 18.7348 1512.08 18.2898C1512.08 17.7784 1511.95 17.3357 1511.71 16.9616C1511.46 16.5876 1511.13 16.2988 1510.71 16.0952C1510.29 15.8916 1509.82 15.7898 1509.29 15.7898C1508.73 15.7898 1508.24 15.9058 1507.83 16.1378C1507.42 16.3651 1507.1 16.6847 1506.87 17.0966C1506.65 17.5085 1506.54 17.9915 1506.54 18.5455H1504.86C1504.86 17.6932 1505.06 16.9451 1505.45 16.3011C1505.84 15.6572 1506.38 15.1553 1507.05 14.7955C1507.74 14.4356 1508.5 14.2557 1509.35 14.2557C1510.2 14.2557 1510.96 14.4356 1511.61 14.7955C1512.27 15.1553 1512.79 15.6406 1513.16 16.2514C1513.54 16.8622 1513.72 17.5417 1513.72 18.2898C1513.72 18.8248 1513.63 19.348 1513.43 19.8594C1513.24 20.366 1512.91 20.9318 1512.44 21.5568C1511.97 22.1771 1511.32 22.9347 1510.48 23.8295L1507.22 27.3239V27.4375H1513.98V29H1504.8ZM1521.66 29.1989C1520.59 29.1989 1519.67 28.9077 1518.92 28.3253C1518.17 27.7382 1517.59 26.8883 1517.2 25.7756C1516.8 24.6581 1516.6 23.3087 1516.6 21.7273C1516.6 20.1553 1516.8 18.813 1517.2 17.7003C1517.6 16.5829 1518.18 15.7306 1518.93 15.1435C1519.69 14.5516 1520.6 14.2557 1521.66 14.2557C1522.72 14.2557 1523.62 14.5516 1524.38 15.1435C1525.13 15.7306 1525.71 16.5829 1526.11 17.7003C1526.51 18.813 1526.71 20.1553 1526.71 21.7273C1526.71 23.3087 1526.51 24.6581 1526.12 25.7756C1525.72 26.8883 1525.14 27.7382 1524.39 28.3253C1523.64 28.9077 1522.73 29.1989 1521.66 29.1989ZM1521.66 27.6364C1522.72 27.6364 1523.54 27.125 1524.13 26.1023C1524.71 25.0795 1525.01 23.6212 1525.01 21.7273C1525.01 20.4678 1524.87 19.3954 1524.6 18.5099C1524.34 17.6245 1523.96 16.9498 1523.45 16.4858C1522.96 16.0218 1522.36 15.7898 1521.66 15.7898C1520.61 15.7898 1519.78 16.3082 1519.19 17.3452C1518.6 18.3774 1518.3 19.8381 1518.3 21.7273C1518.3 22.9867 1518.44 24.0568 1518.7 24.9375C1518.97 25.8182 1519.35 26.4882 1519.85 26.9474C1520.35 27.4067 1520.95 27.6364 1521.66 27.6364Z" fill="white"/>
<path d="M1451.62 14.4545V29H1449.86V16.3011H1449.77L1446.22 18.6591V16.8693L1449.86 14.4545H1451.62ZM1460.92 14.4545V29H1459.15V16.3011H1459.07L1455.52 18.6591V16.8693L1459.15 14.4545H1460.92ZM1469.84 29.1989C1468.77 29.1989 1467.86 28.9077 1467.11 28.3253C1466.36 27.7382 1465.78 26.8883 1465.38 25.7756C1464.99 24.6581 1464.79 23.3087 1464.79 21.7273C1464.79 20.1553 1464.99 18.813 1465.38 17.7003C1465.79 16.5829 1466.36 15.7306 1467.12 15.1435C1467.87 14.5516 1468.78 14.2557 1469.84 14.2557C1470.9 14.2557 1471.81 14.5516 1472.56 15.1435C1473.32 15.7306 1473.9 16.5829 1474.3 17.7003C1474.7 18.813 1474.9 20.1553 1474.9 21.7273C1474.9 23.3087 1474.7 24.6581 1474.3 25.7756C1473.91 26.8883 1473.33 27.7382 1472.58 28.3253C1471.83 28.9077 1470.91 29.1989 1469.84 29.1989ZM1469.84 27.6364C1470.9 27.6364 1471.73 27.125 1472.32 26.1023C1472.9 25.0795 1473.2 23.6212 1473.2 21.7273C1473.2 20.4678 1473.06 19.3954 1472.79 18.5099C1472.53 17.6245 1472.14 16.9498 1471.64 16.4858C1471.14 16.0218 1470.54 15.7898 1469.84 15.7898C1468.79 15.7898 1467.97 16.3082 1467.38 17.3452C1466.79 18.3774 1466.49 19.8381 1466.49 21.7273C1466.49 22.9867 1466.62 24.0568 1466.89 24.9375C1467.15 25.8182 1467.54 26.4882 1468.03 26.9474C1468.53 27.4067 1469.14 27.6364 1469.84 27.6364Z" fill="white"/>
<path d="M1399.62 14.4545V29H1397.86V16.3011H1397.77L1394.22 18.6591V16.8693L1397.86 14.4545H1399.62ZM1408.55 29.1989C1407.48 29.1989 1406.57 28.9077 1405.81 28.3253C1405.06 27.7382 1404.48 26.8883 1404.09 25.7756C1403.69 24.6581 1403.49 23.3087 1403.49 21.7273C1403.49 20.1553 1403.69 18.813 1404.09 17.7003C1404.49 16.5829 1405.07 15.7306 1405.82 15.1435C1406.58 14.5516 1407.49 14.2557 1408.55 14.2557C1409.61 14.2557 1410.51 14.5516 1411.27 15.1435C1412.02 15.7306 1412.6 16.5829 1413 17.7003C1413.4 18.813 1413.6 20.1553 1413.6 21.7273C1413.6 23.3087 1413.4 24.6581 1413.01 25.7756C1412.61 26.8883 1412.03 27.7382 1411.28 28.3253C1410.53 28.9077 1409.62 29.1989 1408.55 29.1989ZM1408.55 27.6364C1409.61 27.6364 1410.43 27.125 1411.02 26.1023C1411.61 25.0795 1411.9 23.6212 1411.9 21.7273C1411.9 20.4678 1411.76 19.3954 1411.49 18.5099C1411.23 17.6245 1410.85 16.9498 1410.34 16.4858C1409.85 16.0218 1409.25 15.7898 1408.55 15.7898C1407.5 15.7898 1406.67 16.3082 1406.08 17.3452C1405.49 18.3774 1405.19 19.8381 1405.19 21.7273C1405.19 22.9867 1405.33 24.0568 1405.59 24.9375C1405.86 25.8182 1406.24 26.4882 1406.74 26.9474C1407.24 27.4067 1407.84 27.6364 1408.55 27.6364ZM1421.05 29.1989C1419.98 29.1989 1419.07 28.9077 1418.31 28.3253C1417.56 27.7382 1416.98 26.8883 1416.59 25.7756C1416.19 24.6581 1415.99 23.3087 1415.99 21.7273C1415.99 20.1553 1416.19 18.813 1416.59 17.7003C1416.99 16.5829 1417.57 15.7306 1418.32 15.1435C1419.08 14.5516 1419.99 14.2557 1421.05 14.2557C1422.11 14.2557 1423.01 14.5516 1423.77 15.1435C1424.52 15.7306 1425.1 16.5829 1425.5 17.7003C1425.9 18.813 1426.1 20.1553 1426.1 21.7273C1426.1 23.3087 1425.9 24.6581 1425.51 25.7756C1425.11 26.8883 1424.53 27.7382 1423.78 28.3253C1423.03 28.9077 1422.12 29.1989 1421.05 29.1989ZM1421.05 27.6364C1422.11 27.6364 1422.93 27.125 1423.52 26.1023C1424.11 25.0795 1424.4 23.6212 1424.4 21.7273C1424.4 20.4678 1424.26 19.3954 1423.99 18.5099C1423.73 17.6245 1423.35 16.9498 1422.84 16.4858C1422.35 16.0218 1421.75 15.7898 1421.05 15.7898C1420 15.7898 1419.17 16.3082 1418.58 17.3452C1417.99 18.3774 1417.69 19.8381 1417.69 21.7273C1417.69 22.9867 1417.83 24.0568 1418.09 24.9375C1418.36 25.8182 1418.74 26.4882 1419.24 26.9474C1419.74 27.4067 1420.34 27.6364 1421.05 27.6364Z" fill="white"/>
<path d="M1206.34 29.1989C1205.74 29.1894 1205.14 29.0758 1204.55 28.858C1203.95 28.6402 1203.4 28.2732 1202.91 27.7571C1202.42 27.2363 1202.02 26.5331 1201.73 25.6477C1201.43 24.7576 1201.28 23.6402 1201.28 22.2955C1201.28 21.0076 1201.4 19.8665 1201.64 18.8722C1201.88 17.8731 1202.23 17.0327 1202.69 16.3509C1203.15 15.6643 1203.71 15.1435 1204.35 14.7884C1205.01 14.4332 1205.74 14.2557 1206.56 14.2557C1207.38 14.2557 1208.1 14.419 1208.74 14.7457C1209.38 15.0677 1209.9 15.5175 1210.3 16.0952C1210.7 16.6728 1210.96 17.3381 1211.08 18.0909H1209.35C1209.19 17.4375 1208.87 16.8954 1208.41 16.4645C1207.95 16.0336 1207.33 15.8182 1206.56 15.8182C1205.44 15.8182 1204.55 16.3082 1203.9 17.2884C1203.26 18.2685 1202.93 19.6439 1202.93 21.4148H1203.04C1203.3 21.0123 1203.62 20.669 1203.98 20.3849C1204.35 20.0961 1204.76 19.8736 1205.21 19.7173C1205.65 19.5611 1206.12 19.483 1206.62 19.483C1207.45 19.483 1208.21 19.6913 1208.91 20.108C1209.6 20.5199 1210.15 21.0904 1210.57 21.8196C1210.98 22.544 1211.19 23.375 1211.19 24.3125C1211.19 25.2121 1210.99 26.036 1210.59 26.7841C1210.19 27.5275 1209.62 28.1193 1208.89 28.5597C1208.17 28.9953 1207.32 29.2083 1206.34 29.1989ZM1206.34 27.6364C1206.93 27.6364 1207.47 27.4872 1207.94 27.1889C1208.42 26.8906 1208.79 26.4905 1209.07 25.9886C1209.35 25.4867 1209.49 24.928 1209.49 24.3125C1209.49 23.7112 1209.35 23.1643 1209.08 22.6719C1208.82 22.1747 1208.45 21.7794 1207.98 21.4858C1207.52 21.1922 1206.99 21.0455 1206.39 21.0455C1205.94 21.0455 1205.52 21.1354 1205.13 21.3153C1204.75 21.4905 1204.41 21.732 1204.11 22.0398C1203.82 22.3475 1203.6 22.7003 1203.43 23.098C1203.26 23.491 1203.18 23.9053 1203.18 24.3409C1203.18 24.9186 1203.32 25.4583 1203.59 25.9602C1203.86 26.4621 1204.24 26.867 1204.71 27.1747C1205.19 27.4825 1205.73 27.6364 1206.34 27.6364ZM1218.73 29.1989C1217.66 29.1989 1216.75 28.9077 1216 28.3253C1215.24 27.7382 1214.67 26.8883 1214.27 25.7756C1213.87 24.6581 1213.67 23.3087 1213.67 21.7273C1213.67 20.1553 1213.87 18.813 1214.27 17.7003C1214.67 16.5829 1215.25 15.7306 1216 15.1435C1216.76 14.5516 1217.67 14.2557 1218.73 14.2557C1219.79 14.2557 1220.7 14.5516 1221.45 15.1435C1222.21 15.7306 1222.79 16.5829 1223.18 17.7003C1223.59 18.813 1223.79 20.1553 1223.79 21.7273C1223.79 23.3087 1223.59 24.6581 1223.19 25.7756C1222.79 26.8883 1222.22 27.7382 1221.46 28.3253C1220.71 28.9077 1219.8 29.1989 1218.73 29.1989ZM1218.73 27.6364C1219.79 27.6364 1220.61 27.125 1221.2 26.1023C1221.79 25.0795 1222.08 23.6212 1222.08 21.7273C1222.08 20.4678 1221.95 19.3954 1221.68 18.5099C1221.41 17.6245 1221.03 16.9498 1220.53 16.4858C1220.03 16.0218 1219.43 15.7898 1218.73 15.7898C1217.68 15.7898 1216.86 16.3082 1216.27 17.3452C1215.67 18.3774 1215.38 19.8381 1215.38 21.7273C1215.38 22.9867 1215.51 24.0568 1215.78 24.9375C1216.04 25.8182 1216.42 26.4882 1216.92 26.9474C1217.42 27.4067 1218.02 27.6364 1218.73 27.6364Z" fill="white"/>
<path d="M1156.05 29.1989C1155.22 29.1989 1154.47 29.0331 1153.8 28.7017C1153.13 28.3703 1152.6 27.9157 1152.19 27.3381C1151.79 26.7604 1151.57 26.1023 1151.53 25.3636H1153.24C1153.3 26.0218 1153.6 26.5663 1154.13 26.9972C1154.67 27.4233 1155.31 27.6364 1156.05 27.6364C1156.65 27.6364 1157.18 27.4967 1157.64 27.2173C1158.11 26.938 1158.48 26.5545 1158.74 26.0668C1159.01 25.5743 1159.15 25.018 1159.15 24.3977C1159.15 23.7633 1159.01 23.1974 1158.73 22.7003C1158.45 22.1984 1158.08 21.803 1157.59 21.5142C1157.11 21.2254 1156.56 21.0786 1155.94 21.0739C1155.49 21.0691 1155.04 21.1378 1154.57 21.2798C1154.1 21.4171 1153.71 21.5947 1153.41 21.8125L1151.76 21.6136L1152.64 14.4545H1160.2V16.017H1154.12L1153.61 20.3068H1153.69C1153.99 20.0701 1154.37 19.8736 1154.82 19.7173C1155.27 19.5611 1155.73 19.483 1156.22 19.483C1157.11 19.483 1157.9 19.696 1158.6 20.1222C1159.3 20.5436 1159.85 21.1212 1160.25 21.8551C1160.65 22.589 1160.85 23.4271 1160.85 24.3693C1160.85 25.2973 1160.64 26.1259 1160.23 26.8551C1159.82 27.5795 1159.25 28.1525 1158.52 28.5739C1157.8 28.9905 1156.97 29.1989 1156.05 29.1989ZM1168.42 29.1989C1167.35 29.1989 1166.44 28.9077 1165.68 28.3253C1164.93 27.7382 1164.36 26.8883 1163.96 25.7756C1163.56 24.6581 1163.36 23.3087 1163.36 21.7273C1163.36 20.1553 1163.56 18.813 1163.96 17.7003C1164.36 16.5829 1164.94 15.7306 1165.69 15.1435C1166.45 14.5516 1167.36 14.2557 1168.42 14.2557C1169.48 14.2557 1170.39 14.5516 1171.14 15.1435C1171.9 15.7306 1172.47 16.5829 1172.87 17.7003C1173.27 18.813 1173.47 20.1553 1173.47 21.7273C1173.47 23.3087 1173.28 24.6581 1172.88 25.7756C1172.48 26.8883 1171.91 27.7382 1171.15 28.3253C1170.4 28.9077 1169.49 29.1989 1168.42 29.1989ZM1168.42 27.6364C1169.48 27.6364 1170.3 27.125 1170.89 26.1023C1171.48 25.0795 1171.77 23.6212 1171.77 21.7273C1171.77 20.4678 1171.64 19.3954 1171.37 18.5099C1171.1 17.6245 1170.72 16.9498 1170.21 16.4858C1169.72 16.0218 1169.12 15.7898 1168.42 15.7898C1167.37 15.7898 1166.55 16.3082 1165.95 17.3452C1165.36 18.3774 1165.07 19.8381 1165.07 21.7273C1165.07 22.9867 1165.2 24.0568 1165.46 24.9375C1165.73 25.8182 1166.11 26.4882 1166.61 26.9474C1167.11 27.4067 1167.71 27.6364 1168.42 27.6364Z" fill="white"/>
<path d="M1097.16 26.017V24.5682L1103.56 14.4545H1104.61V16.6989H1103.9L1099.07 24.3409V24.4545H1107.68V26.017H1097.16ZM1104.01 29V25.5767V24.902V14.4545H1105.69V29H1104.01ZM1115.08 29.1989C1114.01 29.1989 1113.1 28.9077 1112.35 28.3253C1111.59 27.7382 1111.02 26.8883 1110.62 25.7756C1110.22 24.6581 1110.03 23.3087 1110.03 21.7273C1110.03 20.1553 1110.22 18.813 1110.62 17.7003C1111.02 16.5829 1111.6 15.7306 1112.35 15.1435C1113.11 14.5516 1114.02 14.2557 1115.08 14.2557C1116.14 14.2557 1117.05 14.5516 1117.8 15.1435C1118.56 15.7306 1119.14 16.5829 1119.54 17.7003C1119.94 18.813 1120.14 20.1553 1120.14 21.7273C1120.14 23.3087 1119.94 24.6581 1119.54 25.7756C1119.14 26.8883 1118.57 27.7382 1117.82 28.3253C1117.06 28.9077 1116.15 29.1989 1115.08 29.1989ZM1115.08 27.6364C1116.14 27.6364 1116.97 27.125 1117.55 26.1023C1118.14 25.0795 1118.43 23.6212 1118.43 21.7273C1118.43 20.4678 1118.3 19.3954 1118.03 18.5099C1117.76 17.6245 1117.38 16.9498 1116.88 16.4858C1116.38 16.0218 1115.78 15.7898 1115.08 15.7898C1114.03 15.7898 1113.21 16.3082 1112.62 17.3452C1112.03 18.3774 1111.73 19.8381 1111.73 21.7273C1111.73 22.9867 1111.86 24.0568 1112.13 24.9375C1112.39 25.8182 1112.77 26.4882 1113.27 26.9474C1113.77 27.4067 1114.38 27.6364 1115.08 27.6364Z" fill="white"/>
<path d="M998.506 29V27.7216L1003.31 22.4659C1003.87 21.8504 1004.33 21.3153 1004.7 20.8608C1005.06 20.4015 1005.33 19.9706 1005.51 19.5682C1005.69 19.161 1005.78 18.7348 1005.78 18.2898C1005.78 17.7784 1005.66 17.3357 1005.41 16.9616C1005.17 16.5876 1004.84 16.2988 1004.41 16.0952C1003.99 15.8916 1003.52 15.7898 1002.99 15.7898C1002.44 15.7898 1001.95 15.9058 1001.53 16.1378C1001.12 16.3651 1000.8 16.6847 1000.57 17.0966C1000.35 17.5085 1000.24 17.9915 1000.24 18.5455H998.562C998.562 17.6932 998.759 16.9451 999.152 16.3011C999.545 15.6572 1000.08 15.1553 1000.76 14.7955C1001.44 14.4356 1002.2 14.2557 1003.05 14.2557C1003.9 14.2557 1004.66 14.4356 1005.32 14.7955C1005.97 15.1553 1006.49 15.6406 1006.87 16.2514C1007.24 16.8622 1007.43 17.5417 1007.43 18.2898C1007.43 18.8248 1007.33 19.348 1007.13 19.8594C1006.95 20.366 1006.61 20.9318 1006.14 21.5568C1005.67 22.1771 1005.02 22.9347 1004.19 23.8295L1000.92 27.3239V27.4375H1007.68V29H998.506ZM1015.36 29.1989C1014.29 29.1989 1013.38 28.9077 1012.62 28.3253C1011.87 27.7382 1011.3 26.8883 1010.9 25.7756C1010.5 24.6581 1010.3 23.3087 1010.3 21.7273C1010.3 20.1553 1010.5 18.813 1010.9 17.7003C1011.3 16.5829 1011.88 15.7306 1012.63 15.1435C1013.39 14.5516 1014.3 14.2557 1015.36 14.2557C1016.42 14.2557 1017.33 14.5516 1018.08 15.1435C1018.84 15.7306 1019.41 16.5829 1019.81 17.7003C1020.21 18.813 1020.42 20.1553 1020.42 21.7273C1020.42 23.3087 1020.22 24.6581 1019.82 25.7756C1019.42 26.8883 1018.85 27.7382 1018.09 28.3253C1017.34 28.9077 1016.43 29.1989 1015.36 29.1989ZM1015.36 27.6364C1016.42 27.6364 1017.24 27.125 1017.83 26.1023C1018.42 25.0795 1018.71 23.6212 1018.71 21.7273C1018.71 20.4678 1018.58 19.3954 1018.31 18.5099C1018.04 17.6245 1017.66 16.9498 1017.16 16.4858C1016.66 16.0218 1016.06 15.7898 1015.36 15.7898C1014.31 15.7898 1013.49 16.3082 1012.89 17.3452C1012.3 18.3774 1012.01 19.8381 1012.01 21.7273C1012.01 22.9867 1012.14 24.0568 1012.4 24.9375C1012.67 25.8182 1013.05 26.4882 1013.55 26.9474C1014.05 27.4067 1014.65 27.6364 1015.36 27.6364Z" fill="white"/>
</svg>
