<svg version="1.1" id="Layer_1" xmlns="http://www.w3.org/2000/svg" xmlns:xlink="http://www.w3.org/1999/xlink" x="0px" y="0px" viewBox="0 0 148.8682 148.8682" enable-background="new 0 0 148.8682 148.8682" xml:space="preserve">
<g>
<path d="M80.4825,40.6055L39.875,0L21.7041,18.1739l40.6045,40.6035L80.4825,40.6055z M30.5508,19.3565L41.0586,8.8477
		l13.3448,13.3467L43.8985,32.7012L30.5508,19.3565z M47.7793,36.5811l10.5069-10.5069l13.3457,13.3477L61.1241,49.9278
		L47.7793,36.5811z" id="id_101" style="fill: rgb(255, 255, 255);"></path>
<path d="M108.2618,68.3848L90.0899,86.5586l40.6055,40.6045l18.1728-18.1709L108.2618,68.3848z M98.9375,87.7403l10.5079-10.5069
		l13.3437,13.3487l-10.5049,10.5058L98.9375,87.7403z M129.5108,118.3164l-13.3447-13.3476l10.5078-10.5069l13.3427,13.3477
		L129.5108,118.3164z" id="id_102" style="fill: rgb(255, 255, 255);"></path>
<polygon points="82.9151,83.6592 108.9698,57.6035 91.2618,39.8965 65.2081,65.9522 39.3907,78.4063 70.461,109.4776 	" id="id_103" style="fill: rgb(255, 255, 255);"></polygon>
<rect x="101.804" y="35.4854" transform="matrix(0.7071 -0.7071 0.7071 0.7071 -1.3696 86.6328)" width="4.1836" height="18.9686" id="id_104" style="fill: rgb(255, 255, 255);"></rect>
<path d="M59.6592,119.3018v-0.002c-16.623-0.0293-30.0654-13.4716-30.0947-30.0908h-3.998
		c0,18.8301,15.2587,34.0908,34.0927,34.0928V119.3018z" id="id_105" style="fill: rgb(255, 255, 255);"></path>
<path d="M59.5137,132.2198v-0.002c-11.8437,0-22.5469-4.7939-30.3115-12.5547c-7.7607-7.7627-12.5537-18.4687-12.5537-30.3105h-4
		c0,25.8828,20.9805,46.8652,46.8652,46.8672V132.2198z" id="id_106" style="fill: rgb(255, 255, 255);"></path>
<path d="M58.7227,144.8682v-0.002c-15.1201,0-28.7871-6.122-38.6973-16.0263c-9.9043-9.9102-16.0234-23.5782-16.0263-38.6973
		L0,90.1446c0.002,32.4306,26.2862,58.7216,58.7227,58.7236V144.8682z" id="id_107" style="fill: rgb(255, 255, 255);"></path>
</g>
</svg>