<?xml version="1.0" encoding="UTF-8" standalone="no"?> <svg id="icon" xmlns="http://www.w3.org/2000/svg" viewBox="0 0 512 512"><title>satellite</title><path d="M272.132,347.935a12.486,12.486,0,0,0,17.662,0l4.817-4.817a34.607,34.607,0,0,0,55.872-31.352,5.586,5.586,0,0,0-11.088,1.369,23.416,23.416,0,0,1-36.8,22l45.1-45.1a12.486,12.486,0,0,0,0-17.662,53.379,53.379,0,0,0-80.495,5.693l-14.247-14.25L263.576,253.2l5.532,5.53a5.586,5.586,0,1,0,7.9-7.9l-6.625-6.625,5.513-5.512a20,20,0,0,0,0-28.29l-21.127-21.128L273.642,170.4l14.785,14.786a5.586,5.586,0,0,0,7.9-7.9L244.285,125.24l23.477-23.478,20.1,20.1-14.614,14.614a5.585,5.585,0,1,0,7.9,7.9l14.614-14.614,8.181,8.182a5.586,5.586,0,0,0,7.9-7.9L271.712,89.913a5.584,5.584,0,0,0-7.9,0l-31.377,31.378a5.582,5.582,0,0,0,0,7.9L265.742,162.5l-18.873,18.872-10.621-10.623,10.422-10.424a5.586,5.586,0,0,0-7.9-7.9l-10.425,10.425-17.3-17.3a18.437,18.437,0,0,0-23.333-2.259l-4.676-4.677a5.586,5.586,0,0,0-7.9,7.9l4.435,4.436-28.866,28.864-4.434-4.434a8.531,8.531,0,0,1,0-12.048l16.819-16.818a5.586,5.586,0,0,0-7.9-7.9l-16.82,16.818a19.715,19.715,0,0,0,0,27.847l4.676,4.676a18.439,18.439,0,0,0,2.26,23.333l17.3,17.3L143.736,247.46,128.95,232.674a5.586,5.586,0,0,0-7.9,7.9l52.041,52.044-38.849,38.85a5.586,5.586,0,0,0,7.9,7.9l42.8-42.8a5.584,5.584,0,0,0,0-7.9l-33.308-33.309,18.873-18.871,4.936,4.936,5.686,5.686-10.423,10.424a5.586,5.586,0,1,0,7.9,7.9L189.03,255.01l21.128,21.128a20.027,20.027,0,0,0,28.29,0l5.513-5.513,17.348,17.349A53.516,53.516,0,0,0,272.132,347.935Zm7.9-67.663a42.257,42.257,0,0,1,59.765,0,1.315,1.315,0,0,1,0,1.861l-57.9,57.9a1.316,1.316,0,0,1-1.862,0A42.309,42.309,0,0,1,280.031,280.272Zm-49.483-12.036a8.843,8.843,0,0,1-12.491,0L192.98,243.161l-18.522-18.524-.008-.006L153.209,203.39a7.273,7.273,0,0,1,0-10.275l39.667-39.665a7.266,7.266,0,0,1,10.273,0L268,218.3a8.831,8.831,0,0,1,0,12.49Z"/><path d="M58.288,379.606a30.839,30.839,0,0,0,43.616,0l13.52-13.52a5.584,5.584,0,0,0,0-7.9L91.376,334.14,109.814,315.7a5.585,5.585,0,0,0-7.9-7.9L83.477,326.241,75.3,318.06a5.586,5.586,0,0,0-7.9,7.9l36.179,36.177-9.57,9.57a19.67,19.67,0,0,1-27.817,0L60,365.518l12.9-12.9a5.585,5.585,0,0,0-7.9-7.9l-12.9,12.9-6.189-6.19a19.693,19.693,0,0,1,0-27.815L93.623,275.9,129.8,312.08a5.586,5.586,0,1,0,7.9-7.9L129.518,296l12.805-12.805a5.586,5.586,0,0,0-7.9-7.9l-12.8,12.806-20.1-20.1,10.708-10.708a5.586,5.586,0,1,0-7.9-7.9L38.011,315.714a30.84,30.84,0,0,0,0,43.615Z"/><path d="M288.427,65.3a5.585,5.585,0,0,0,7.9,7.9l27.047-27.045a19.67,19.67,0,0,1,27.817,0l6.189,6.189-12.9,12.9a5.585,5.585,0,1,0,7.9,7.9l12.9-12.9,6.189,6.189a19.694,19.694,0,0,1,0,27.817l-9.57,9.57L325.718,67.637a5.586,5.586,0,0,0-7.9,7.9L326,83.718l-18.438,18.436a5.586,5.586,0,1,0,7.9,7.9L333.9,91.618l20.1,20.1-46.709,46.708a5.585,5.585,0,1,0,7.9,7.9l64.18-64.177a30.877,30.877,0,0,0,0-43.616L359.089,38.252a30.839,30.839,0,0,0-43.616,0Z"/><path d="M334.855,393.7a5.567,5.567,0,0,0,1.327-.161,78.534,78.534,0,0,0,57.56-57.557,5.586,5.586,0,0,0-10.854-2.649,67.363,67.363,0,0,1-49.352,49.352,5.587,5.587,0,0,0,1.319,11.015Z"/><path d="M341.576,436.526a5.605,5.605,0,0,0,1.158-.121,121.448,121.448,0,0,0,27.252-9.228,5.586,5.586,0,1,0-4.814-10.081,110.213,110.213,0,0,1-24.743,8.376,5.587,5.587,0,0,0,1.147,11.054Z"/><path d="M385.282,411.812a5.587,5.587,0,0,0,7.849.9,123.154,123.154,0,0,0,10.452-9.329A121.238,121.238,0,0,0,436.6,342.534a5.586,5.586,0,0,0-10.932-2.305,110.1,110.1,0,0,1-29.988,55.254,112.263,112.263,0,0,1-9.5,8.48A5.587,5.587,0,0,0,385.282,411.812Z"/><path d="M348.836,482.782a5.567,5.567,0,0,0,1.074-.1,167.644,167.644,0,0,0,86.746-46.22c3.276-3.275,6.453-6.723,9.443-10.247a5.586,5.586,0,0,0-8.518-7.228c-2.8,3.292-5.764,6.513-8.824,9.575a156.53,156.53,0,0,1-80.985,43.155,5.587,5.587,0,0,0,1.064,11.07Z"/><path d="M460.649,395.4A5.591,5.591,0,0,0,453,397.357q-.7,1.192-1.434,2.375a5.586,5.586,0,1,0,9.512,5.86q.782-1.267,1.537-2.543A5.589,5.589,0,0,0,460.649,395.4Z"/><path d="M478.5,342.949a5.581,5.581,0,0,0-6.545,4.423,157.481,157.481,0,0,1-7.7,26.78,5.586,5.586,0,1,0,10.42,4.029,168.377,168.377,0,0,0,8.248-28.687A5.585,5.585,0,0,0,478.5,342.949Z"/></svg>